STARTFONT 2.1
COMMENT
COMMENT Converted from OpenType font "Q:\font stuff\winfont\Wytherness.ttf" by "otf2bdf 3.0".
COMMENT
FONT -FreeType-Wytherness-Medium-R-Normal--84-840-72-72-P-201-ISO10646-1
SIZE 84 72 72
FONTBOUNDINGBOX 84 84 -2 -17
STARTPROPERTIES 19
FOUNDRY "FreeType"
FAMILY_NAME "Wytherness"
WEIGHT_NAME "Medium"
SLANT "R"
SETWIDTH_NAME "Normal"
ADD_STYLE_NAME ""
PIXEL_SIZE 84
POINT_SIZE 840
RESOLUTION_X 72
RESOLUTION_Y 72
SPACING "P"
AVERAGE_WIDTH 201
CHARSET_REGISTRY "ISO10646"
CHARSET_ENCODING "1"
FONT_ASCENT 67
FONT_DESCENT 17
COPYRIGHT "Copyright (c) Graham Meade, 2003. All rights reserved."
_OTF_FONTFILE "Q:\font stuff\winfont\Wytherness.ttf"
_OTF_PSNAME "Wytherness"
ENDPROPERTIES
CHARS 219
STARTCHAR 0020
ENCODING 32
SWIDTH 285 0
DWIDTH 24 0
BBX 0 0 0 0
BITMAP
ENDCHAR
STARTCHAR 0021
ENCODING 33
SWIDTH 142 0
DWIDTH 12 0
BBX 3 55 5 0
BITMAP
E0
E0
E0
E0
E0
E0
E0
E0
E0
E0
E0
E0
E0
E0
E0
E0
E0
E0
E0
E0
E0
E0
E0
E0
E0
E0
E0
E0
E0
E0
E0
E0
E0
E0
E0
E0
E0
E0
E0
E0
E0
00
00
00
00
00
00
00
00
E0
E0
E0
E0
E0
E0
ENDCHAR
STARTCHAR 0022
ENCODING 34
SWIDTH 238 0
DWIDTH 20 0
BBX 12 12 5 43
BITMAP
E070
E070
E070
E070
E070
E070
E070
E070
E070
E070
E070
E070
ENDCHAR
STARTCHAR 0023
ENCODING 35
SWIDTH 428 0
DWIDTH 36 0
BBX 27 25 5 12
BITMAP
01C03800
01C03800
01C03800
01C03800
01C03800
7FFFFFC0
7FFFFFC0
7FFFFFE0
03807000
03807000
03807000
03807000
03807000
03807000
03807000
03807000
03807000
FFFFFFC0
FFFFFFC0
FFFFFFC0
07007000
07007000
07007000
07007000
07007000
ENDCHAR
STARTCHAR 0024
ENCODING 36
SWIDTH 345 0
DWIDTH 29 0
BBX 20 55 5 0
BITMAP
007000
007000
007000
01F800
07FE00
1FFF00
3F7F80
7C73C0
F071E0
E070E0
E07000
E07000
E07000
E07000
E07000
E07000
E07000
E07000
E07000
E07000
E07000
F07000
7C7000
3FF000
0FFC00
03FF00
007F80
0073C0
0071E0
0070F0
007070
007070
007070
007070
007070
007070
007070
007070
007070
007070
007070
007070
007070
007070
007070
007070
F070E0
F871E0
7E77C0
1FFF80
0FFE00
03F800
007000
007000
007000
ENDCHAR
STARTCHAR 0025
ENCODING 37
SWIDTH 619 0
DWIDTH 52 0
BBX 43 55 5 1
BITMAP
0F80000E0000
1FC0000E0000
3FE0000E0000
78F0001C0000
7078001C0000
E03C001C0000
E01E003C0000
E00E00380000
E00E00380000
E00E00780000
E00E00700000
E00E00700000
E00E00F00000
E00E00E00000
E00E00E00000
E00E00E00000
E00E01C00000
E00E01C00000
E00E01C00000
E00E03C00000
E00E03800000
E00E03800000
E01E07800000
E01C07000000
F03C07000000
7C780F000000
3FF00E007C00
1FE00E00FE00
0FC00E01FF00
00001C03C780
00001C038380
00001C0701C0
00003C0701E0
0000380700E0
0000380700E0
0000780700E0
0000700700E0
0000700700E0
0000F00700E0
0000E00700E0
0000E00700E0
0000E00700E0
0001C00700E0
0001C00700E0
0001C00700E0
0003800700E0
0003800700E0
0003800700E0
0007800701E0
0007000701C0
0007000783C0
000F0003C780
000E0001FF00
000E0000FE00
000E00007C00
ENDCHAR
STARTCHAR 0026
ENCODING 38
SWIDTH 345 0
DWIDTH 29 0
BBX 20 58 5 -3
BITMAP
01F800
0FFE00
1FFF00
3E0F80
7803C0
F001E0
E000F0
E00070
E00070
E00070
E00070
E00070
E00070
E00070
E00070
E00070
E00070
F000F0
F803E0
7E0FC0
3FFF80
1FFF00
0FFE00
1FE000
3E0000
780000
F00000
E00000
E00000
E03800
E03E00
E03F00
E00F80
E003C0
E001E0
E000F0
E00070
E00070
E00070
E00070
E00070
E00070
E00070
E00070
E00070
E00070
E00070
E00070
E000F0
F001F0
7803F0
3E07F0
1FFF70
0FFE70
03F070
000070
000070
000070
ENDCHAR
STARTCHAR 0027
ENCODING 39
SWIDTH 142 0
DWIDTH 12 0
BBX 3 12 5 43
BITMAP
E0
E0
E0
E0
E0
E0
E0
E0
E0
E0
E0
E0
ENDCHAR
STARTCHAR 0028
ENCODING 40
SWIDTH 226 0
DWIDTH 19 0
BBX 10 72 5 -9
BITMAP
03C0
0FC0
1FC0
7E00
F800
F000
E000
E000
E000
E000
E000
E000
E000
E000
E000
E000
E000
E000
E000
E000
E000
E000
E000
E000
E000
E000
E000
E000
E000
E000
E000
E000
E000
E000
E000
E000
E000
E000
E000
E000
E000
E000
E000
E000
E000
E000
E000
E000
E000
E000
E000
E000
E000
E000
E000
E000
E000
E000
E000
E000
E000
E000
E000
E000
E000
E000
F000
7800
3E00
1FC0
0FC0
01C0
ENDCHAR
STARTCHAR 0029
ENCODING 41
SWIDTH 226 0
DWIDTH 19 0
BBX 10 72 5 -9
BITMAP
E000
F800
FC00
3F00
0F80
0780
03C0
01C0
01C0
01C0
01C0
01C0
01C0
01C0
01C0
01C0
01C0
01C0
01C0
01C0
01C0
01C0
01C0
01C0
01C0
01C0
01C0
01C0
01C0
01C0
01C0
01C0
01C0
01C0
01C0
01C0
01C0
01C0
01C0
01C0
01C0
01C0
01C0
01C0
01C0
01C0
01C0
01C0
01C0
01C0
01C0
01C0
01C0
01C0
01C0
01C0
01C0
01C0
01C0
01C0
01C0
01C0
01C0
01C0
01C0
03C0
0780
0F00
3E00
FC00
F800
E000
ENDCHAR
STARTCHAR 002A
ENCODING 42
SWIDTH 333 0
DWIDTH 28 0
BBX 18 21 5 34
BITMAP
00E000
00E000
00E000
00E000
40E080
E0E1C0
F8E7C0
7EFF80
1FFE00
0FFC00
03F000
0FFC00
3FFE00
7EFF80
F8E7C0
E0E1C0
40E080
00E000
00E000
00E000
00E000
ENDCHAR
STARTCHAR 002B
ENCODING 43
SWIDTH 416 0
DWIDTH 35 0
BBX 27 25 5 12
BITMAP
000E0000
000E0000
000E0000
000E0000
000E0000
000E0000
000E0000
000E0000
000E0000
000E0000
000E0000
FFFFFFE0
FFFFFFE0
FFFFFFE0
000E0000
000E0000
000E0000
000E0000
000E0000
000E0000
000E0000
000E0000
000E0000
000E0000
000E0000
ENDCHAR
STARTCHAR 002C
ENCODING 44
SWIDTH 178 0
DWIDTH 15 0
BBX 6 12 4 -5
BITMAP
1C
1C
1C
3C
38
38
38
78
70
70
70
F0
ENDCHAR
STARTCHAR 002D
ENCODING 45
SWIDTH 416 0
DWIDTH 35 0
BBX 26 3 5 23
BITMAP
FFFFFFC0
FFFFFFC0
FFFFFFC0
ENDCHAR
STARTCHAR 002E
ENCODING 46
SWIDTH 142 0
DWIDTH 12 0
BBX 3 6 5 0
BITMAP
E0
E0
E0
E0
E0
E0
ENDCHAR
STARTCHAR 002F
ENCODING 47
SWIDTH 345 0
DWIDTH 29 0
BBX 21 55 4 1
BITMAP
000078
000070
000070
0000F0
0000E0
0000E0
0000E0
0001C0
0001C0
0001C0
000380
000380
000380
000700
000700
000700
000F00
000E00
000E00
001E00
001C00
001C00
003C00
003800
003800
003800
007000
007000
007000
00E000
00E000
00E000
01E000
01C000
01C000
03C000
038000
038000
078000
070000
070000
070000
0E0000
0E0000
0E0000
1C0000
1C0000
1C0000
3C0000
380000
380000
780000
700000
700000
F00000
ENDCHAR
STARTCHAR 0030
ENCODING 48
SWIDTH 345 0
DWIDTH 29 0
BBX 20 55 5 0
BITMAP
01F000
0FFE00
1FFF00
3E0F80
7803C0
F001E0
E000F0
E00070
E00070
E00070
E00070
E00070
E00070
E00070
E00070
E00070
E00070
E00070
E00070
E00070
E00070
E00070
E00070
E07070
E07070
E07070
E07070
E07070
E07070
E00070
E00070
E00070
E00070
E00070
E00070
E00070
E00070
E00070
E00070
E00070
E00070
E00070
E00070
E00070
E00070
E00070
E00070
E00070
E000F0
F001E0
7803E0
3E0FC0
1FFF00
0FFE00
03F800
ENDCHAR
STARTCHAR 0031
ENCODING 49
SWIDTH 345 0
DWIDTH 29 0
BBX 19 55 5 0
BITMAP
007000
007000
007000
007000
007000
007000
007000
007000
007000
007000
007000
007000
007000
007000
007000
007000
007000
007000
007000
007000
007000
007000
007000
007000
007000
007000
007000
007000
007000
007000
007000
007000
007000
007000
007000
007000
007000
007000
007000
007000
007000
007000
007000
007000
007000
007000
007000
007000
207000
F070E0
7871E0
3E77C0
1FFF00
0FFE00
01F800
ENDCHAR
STARTCHAR 0032
ENCODING 50
SWIDTH 345 0
DWIDTH 29 0
BBX 20 55 5 0
BITMAP
01F000
0FFE00
1FFF00
3E0F80
7803C0
F001E0
E000F0
E00070
E00070
E00070
000070
000070
000070
000070
000070
000070
000070
000070
000070
0000F0
0001F0
0003E0
000FC0
01FF80
0FFE00
1FF800
3E0000
780000
F00000
E00000
E00000
E00000
E00000
E00000
E00000
E00000
E00000
E00000
E00000
E00000
E00000
E00000
E00000
E00000
E00000
E00000
E00000
E00000
E00080
F001E0
7803E0
3E0FC0
1FFF00
0FFE00
03F800
ENDCHAR
STARTCHAR 0033
ENCODING 51
SWIDTH 345 0
DWIDTH 29 0
BBX 20 55 5 0
BITMAP
01F000
0FFE00
1FFF00
3E0F80
7803C0
F001E0
E000F0
E00070
E00070
E00070
000070
000070
000070
000070
000070
000070
000070
000070
000070
0000F0
0001F0
0003E0
000FC0
003F80
003E00
003F00
000F80
0003C0
0001E0
0000F0
000070
000070
000070
000070
000070
000070
000070
000070
000070
000070
000070
000070
000070
000070
000070
000070
E00070
E00070
E000F0
F001E0
7803E0
3E0FC0
1FFF00
0FFE00
03F800
ENDCHAR
STARTCHAR 0034
ENCODING 52
SWIDTH 345 0
DWIDTH 29 0
BBX 19 55 5 0
BITMAP
00E000
00E000
01E000
01C000
01C000
01C000
03C000
038000
038000
038000
070000
070000
070000
070000
0E0000
0E1C00
0E1C00
1E1C00
1C1C00
1C1C00
1C1C00
3C1C00
381C00
381C00
381C00
701C00
701C00
701C00
F01C00
E01C00
E01C00
E01C00
E01C00
E01C00
E01C00
E01C00
E01C00
E01CE0
F81DE0
7C1FC0
3FFF80
0FFE00
03FC00
001C00
001C00
001C00
001C00
001C00
001C00
001C00
001C00
001C00
001C00
001C00
001C00
ENDCHAR
STARTCHAR 0035
ENCODING 53
SWIDTH 345 0
DWIDTH 29 0
BBX 20 55 5 0
BITMAP
01F000
0FFE00
1FFF00
3E0F80
7803C0
F001E0
E000E0
E00000
E00000
E00000
E00000
E00000
E00000
E00000
E00000
E00000
E00000
E00000
E00000
E00000
E00000
E00000
E00000
E1F800
E7FE00
FFFF00
FE0F80
F803C0
F001E0
E000F0
000070
000070
000070
000070
000070
000070
000070
000070
000070
000070
000070
000070
000070
000070
000070
000070
E00070
E00070
E000F0
F001E0
7803E0
3E0FC0
1FFF00
0FFE00
03F800
ENDCHAR
STARTCHAR 0036
ENCODING 54
SWIDTH 345 0
DWIDTH 29 0
BBX 20 55 5 0
BITMAP
01C000
0FC000
1FC000
3E0000
780000
F00000
E00000
E00000
E00000
E00000
E00000
E00000
E00000
E00000
E00000
E00000
E00000
E00000
E00000
E00000
E00000
E00000
E00000
E1F800
E7FE00
FFFF00
FF1F80
FC07C0
F001E0
E000F0
E00070
E00070
E00070
E00070
E00070
E00070
E00070
E00070
E00070
E00070
E00070
E00070
E00070
E00070
E00070
E00070
E00070
E00070
E000F0
F001E0
7803E0
3E0FC0
1FFF00
0FFE00
03F800
ENDCHAR
STARTCHAR 0037
ENCODING 55
SWIDTH 345 0
DWIDTH 29 0
BBX 20 55 5 0
BITMAP
01F000
07FE00
1FFF00
3E0F80
7803C0
F001E0
E000F0
000070
000070
000070
000070
000070
0000E0
0000E0
0000E0
0000E0
0000E0
0001C0
0001C0
0001C0
0001C0
0001C0
000380
000380
000380
000380
000380
000700
000700
000700
000700
000700
000F00
000E00
000E00
000E00
000E00
001E00
001C00
001C00
001C00
001C00
003C00
003800
003800
003800
003800
007800
007000
007000
007000
007000
00F000
00E000
00E000
ENDCHAR
STARTCHAR 0038
ENCODING 56
SWIDTH 345 0
DWIDTH 29 0
BBX 20 55 5 0
BITMAP
01F000
0FFE00
1FFF00
3E0F80
7803C0
F001E0
E000F0
E00070
E00070
E00070
E00070
E00070
E00070
E00070
E00070
E00070
E00070
E00070
E00070
E000F0
F001F0
F803E0
7E0FC0
3FFF80
0FFE00
0FFF00
3E0F80
7803C0
F001E0
E000F0
E00070
E00070
E00070
E00070
E00070
E00070
E00070
E00070
E00070
E00070
E00070
E00070
E00070
E00070
E00070
E00070
E00070
E00070
E000F0
F001E0
7803E0
3E0FC0
1FFF00
0FFE00
03F800
ENDCHAR
STARTCHAR 0039
ENCODING 57
SWIDTH 345 0
DWIDTH 29 0
BBX 20 55 5 0
BITMAP
01F000
0FFE00
1FFF00
3E0F80
7803C0
F001E0
E000F0
E00070
E00070
E00070
E00070
E00070
E00070
E00070
E00070
E00070
E00070
E00070
E00070
E00070
E00070
E00070
E00070
E00070
E00070
E000F0
F001F0
F803F0
7C07F0
1FFF70
0FFE70
03F070
000070
000070
000070
000070
000070
000070
000070
000070
000070
000070
000070
000070
000070
000070
000070
000070
0000F0
0001E0
0003E0
000FC0
003F00
003E00
003800
ENDCHAR
STARTCHAR 003A
ENCODING 58
SWIDTH 142 0
DWIDTH 12 0
BBX 3 29 5 0
BITMAP
E0
E0
E0
E0
E0
E0
00
00
00
00
00
00
00
00
00
00
00
00
00
00
00
00
00
E0
E0
E0
E0
E0
E0
ENDCHAR
STARTCHAR 003B
ENCODING 59
SWIDTH 178 0
DWIDTH 15 0
BBX 6 35 5 -6
BITMAP
1C
1C
1C
1C
1C
1C
00
00
00
00
00
00
00
00
00
00
00
00
00
00
00
00
00
38
38
38
38
70
70
70
70
E0
E0
E0
E0
ENDCHAR
STARTCHAR 003C
ENCODING 60
SWIDTH 416 0
DWIDTH 35 0
BBX 26 21 5 14
BITMAP
000000C0
000007C0
00003FC0
0000FF80
0007FC00
003FE000
01FF0000
0FF80000
7FC00000
FF000000
F8000000
FE000000
7FC00000
0FF80000
01FF0000
003FE000
000FFC00
0001FF00
00003F80
00000780
00000080
ENDCHAR
STARTCHAR 003D
ENCODING 61
SWIDTH 416 0
DWIDTH 35 0
BBX 26 15 5 17
BITMAP
FFFFFFC0
FFFFFFC0
FFFFFFC0
00000000
00000000
00000000
00000000
00000000
00000000
00000000
00000000
00000000
FFFFFFC0
FFFFFFC0
FFFFFFC0
ENDCHAR
STARTCHAR 003E
ENCODING 62
SWIDTH 416 0
DWIDTH 35 0
BBX 26 21 5 14
BITMAP
80000000
F0000000
FE000000
FFC00000
1FF00000
03FE0000
007FC000
000FF800
0001FF00
00003FC0
00000FC0
00003FC0
0001FF00
000FF800
007FC000
03FF0000
0FF80000
7FC00000
FE000000
F0000000
80000000
ENDCHAR
STARTCHAR 003F
ENCODING 63
SWIDTH 345 0
DWIDTH 29 0
BBX 20 55 5 0
BITMAP
01F800
07FE00
1FFF00
3E0F80
7803C0
F001E0
E000F0
000070
000070
000070
000070
000070
000070
000070
000070
000070
000070
000070
000070
000070
0000F0
0001E0
0003C0
000F80
007E00
007800
007000
007000
007000
007000
007000
007000
007000
007000
007000
007000
007000
007000
007000
007000
007000
000000
000000
000000
000000
000000
000000
000000
000000
007000
007000
007000
007000
007000
007000
ENDCHAR
STARTCHAR 0040
ENCODING 64
SWIDTH 476 0
DWIDTH 40 0
BBX 32 47 5 3
BITMAP
01FFC000
0FFFF800
1FFFFC00
3E003E00
78000F00
F0000780
E00003C0
E00001C0
E00001C0
E00001C0
E00001C0
E00001C0
E00001C0
E00FC1C0
E03FF1C0
E07FFDC0
E1F01FC0
E3C007C0
E38003C0
E38001C0
E38001C0
E38001C0
E38001C0
E38001C0
E38001C0
E38001C0
E38001C0
E38001C0
E38001C0
E38003C0
E3C007C7
E1E00FC7
E0FC7FC7
E07FFDC7
E03FF9C7
E00FC1C7
E0000007
E0000007
E0000007
E0000007
E000000F
F000001E
F800003E
7E0000FC
1FFFFFF0
0FFFFFE0
03FFFF80
ENDCHAR
STARTCHAR 0041
ENCODING 65
SWIDTH 345 0
DWIDTH 29 0
BBX 20 55 5 0
BITMAP
01F000
0FFE00
1FFF00
3E0F80
7803C0
F001E0
E000F0
E00070
E00070
E00070
E00070
E00070
E00070
E00070
E00070
E00070
E00070
E00070
E00070
E00070
E00070
E00070
E00070
FFFFF0
FFFFF0
FFFFF0
E00070
E00070
E00070
E00070
E00070
E00070
E00070
E00070
E00070
E00070
E00070
E00070
E00070
E00070
E00070
E00070
E00070
E00070
E00070
E00070
E00070
E00070
E00070
E00070
E00070
E00070
E00070
E00070
E00070
ENDCHAR
STARTCHAR 0042
ENCODING 66
SWIDTH 345 0
DWIDTH 29 0
BBX 20 55 5 0
BITMAP
FFF800
FFFE00
FFFF00
E00F80
E003C0
E001E0
E000F0
E00070
E00070
E00070
E00070
E00070
E00070
E00070
E00070
E00070
E00070
E00070
E00070
E000F0
E001F0
E003E0
E00FC0
FFFF80
FFFE00
FFFF00
E00F80
E003C0
E001E0
E000F0
E00070
E00070
E00070
E00070
E00070
E00070
E00070
E00070
E00070
E00070
E00070
E00070
E00070
E00070
E00070
E00070
E00070
E00070
E000F0
E001E0
E003C0
E00F80
FFFF00
FFFE00
FFF800
ENDCHAR
STARTCHAR 0043
ENCODING 67
SWIDTH 345 0
DWIDTH 29 0
BBX 19 55 5 0
BITMAP
01F000
0FFE00
1FFF00
3E0F80
7803C0
F001E0
E000E0
E00000
E00000
E00000
E00000
E00000
E00000
E00000
E00000
E00000
E00000
E00000
E00000
E00000
E00000
E00000
E00000
E00000
E00000
E00000
E00000
E00000
E00000
E00000
E00000
E00000
E00000
E00000
E00000
E00000
E00000
E00000
E00000
E00000
E00000
E00000
E00000
E00000
E00000
E00000
E00000
E00000
E00040
F000E0
7803C0
3E0F80
1FFF00
0FFE00
03F800
ENDCHAR
STARTCHAR 0044
ENCODING 68
SWIDTH 345 0
DWIDTH 29 0
BBX 20 55 5 0
BITMAP
FFF800
FFFE00
FFFF00
E00F80
E003C0
E001E0
E000F0
E00070
E00070
E00070
E00070
E00070
E00070
E00070
E00070
E00070
E00070
E00070
E00070
E00070
E00070
E00070
E00070
E00070
E00070
E00070
E00070
E00070
E00070
E00070
E00070
E00070
E00070
E00070
E00070
E00070
E00070
E00070
E00070
E00070
E00070
E00070
E00070
E00070
E00070
E00070
E00070
E00070
E000F0
E001E0
E003C0
E00F80
FFFF00
FFFE00
FFF800
ENDCHAR
STARTCHAR 0045
ENCODING 69
SWIDTH 345 0
DWIDTH 29 0
BBX 19 55 5 0
BITMAP
01F000
0FFE00
1FFF00
3E0F80
7803C0
F001E0
E000E0
E00000
E00000
E00000
E00000
E00000
E00000
E00000
E00000
E00000
E00000
E00000
E00000
E00000
E00000
E00000
E00000
FFFC00
FFFC00
FFFC00
E00000
E00000
E00000
E00000
E00000
E00000
E00000
E00000
E00000
E00000
E00000
E00000
E00000
E00000
E00000
E00000
E00000
E00000
E00000
E00000
E00000
E00000
E00040
F000E0
7803C0
3E0F80
1FFF00
0FFE00
03F800
ENDCHAR
STARTCHAR 0046
ENCODING 70
SWIDTH 309 0
DWIDTH 26 0
BBX 19 55 5 0
BITMAP
01F000
0FFE00
1FFF00
3E0F80
7803C0
F001E0
E000E0
E00000
E00000
E00000
E00000
E00000
E00000
E00000
E00000
E00000
E00000
E00000
E00000
E00000
E00000
E00000
E00000
FFFC00
FFFC00
FFFC00
E00000
E00000
E00000
E00000
E00000
E00000
E00000
E00000
E00000
E00000
E00000
E00000
E00000
E00000
E00000
E00000
E00000
E00000
E00000
E00000
E00000
E00000
E00000
E00000
E00000
E00000
E00000
E00000
E00000
ENDCHAR
STARTCHAR 0047
ENCODING 71
SWIDTH 345 0
DWIDTH 29 0
BBX 20 55 5 0
BITMAP
01F000
0FFE00
1FFF00
3E0F80
7803C0
F001E0
E000E0
E00000
E00000
E00000
E00000
E00000
E00000
E00000
E00000
E00000
E00000
E00000
E00000
E00000
E00000
E00000
E00000
E0FFF0
E0FFF0
E0FFF0
E00070
E00070
E00070
E00070
E00070
E00070
E00070
E00070
E00070
E00070
E00070
E00070
E00070
E00070
E00070
E00070
E00070
E00070
E00070
E00070
E00070
E00070
E000F0
F001E0
7803C0
3E0F80
1FFF00
0FFE00
03F800
ENDCHAR
STARTCHAR 0048
ENCODING 72
SWIDTH 345 0
DWIDTH 29 0
BBX 20 55 5 0
BITMAP
E00070
E00070
E00070
E00070
E00070
E00070
E00070
E00070
E00070
E00070
E00070
E00070
E00070
E00070
E00070
E00070
E00070
E00070
E00070
E00070
E00070
E00070
E00070
FFFFF0
FFFFF0
FFFFF0
E00070
E00070
E00070
E00070
E00070
E00070
E00070
E00070
E00070
E00070
E00070
E00070
E00070
E00070
E00070
E00070
E00070
E00070
E00070
E00070
E00070
E00070
E00070
E00070
E00070
E00070
E00070
E00070
E00070
ENDCHAR
STARTCHAR 0049
ENCODING 73
SWIDTH 142 0
DWIDTH 12 0
BBX 3 55 5 0
BITMAP
E0
E0
E0
E0
E0
E0
E0
E0
E0
E0
E0
E0
E0
E0
E0
E0
E0
E0
E0
E0
E0
E0
E0
E0
E0
E0
E0
E0
E0
E0
E0
E0
E0
E0
E0
E0
E0
E0
E0
E0
E0
E0
E0
E0
E0
E0
E0
E0
E0
E0
E0
E0
E0
E0
E0
ENDCHAR
STARTCHAR 004A
ENCODING 74
SWIDTH 345 0
DWIDTH 29 0
BBX 20 55 5 0
BITMAP
000070
000070
000070
000070
000070
000070
000070
000070
000070
000070
000070
000070
000070
000070
000070
000070
000070
000070
000070
000070
000070
000070
000070
000070
000070
000070
000070
000070
000070
000070
000070
000070
000070
000070
000070
000070
000070
000070
000070
000070
000070
000070
000070
000070
000070
000070
000070
000070
2000F0
F001E0
7803C0
3E0F80
1FFF00
0FFE00
01F800
ENDCHAR
STARTCHAR 004B
ENCODING 75
SWIDTH 345 0
DWIDTH 29 0
BBX 20 55 5 0
BITMAP
E00070
E00070
E00070
E00070
E00070
E00070
E00070
E00070
E00070
E00070
E00070
E00070
E00070
E00070
E00070
E00070
E00070
E00070
E00070
E00070
E000F0
E003E0
E00FC0
E07F80
E3FE00
EFFF00
FF1F80
FC03C0
F001E0
E000F0
E00070
E00070
E00070
E00070
E00070
E00070
E00070
E00070
E00070
E00070
E00070
E00070
E00070
E00070
E00070
E00070
E00070
E00070
E00070
E00070
E00070
E00070
E00070
E00070
E00070
ENDCHAR
STARTCHAR 004C
ENCODING 76
SWIDTH 345 0
DWIDTH 29 0
BBX 20 55 5 0
BITMAP
E00000
E00000
E00000
E00000
E00000
E00000
E00000
E00000
E00000
E00000
E00000
E00000
E00000
E00000
E00000
E00000
E00000
E00000
E00000
E00000
E00000
E00000
E00000
E00000
E00000
E00000
E00000
E00000
E00000
E00000
E00000
E00000
E00000
E00000
E00000
E00000
E00000
E00000
E00000
E00000
E00000
E00000
E00000
E00000
E00000
E00000
E00000
E00000
E00000
F00000
780000
3E0000
1FFFF0
0FFFF0
03FFF0
ENDCHAR
STARTCHAR 004D
ENCODING 77
SWIDTH 547 0
DWIDTH 46 0
BBX 37 55 5 0
BITMAP
03F000FC00
0FFC03FF00
1FFF0FFF80
3E0F9F07C0
7803FC01E0
F001F800F0
E000F00078
E000700038
E000700038
E000700038
E000700038
E000700038
E000700038
E000700038
E000700038
E000700038
E000700038
E000700038
E000700038
E000700038
E000700038
E000700038
E000700038
E000700038
E000700038
E000700038
E000700038
E000700038
E000700038
E000700038
E000700038
E000700038
E000700038
E000700038
E000700038
E000700038
E000700038
E000700038
E000700038
E000700038
E000700038
E000700038
E000700038
E000700038
E000700038
E000700038
E000700038
E000700038
E000700038
E000700038
E000700038
E000700038
E000700038
E000700038
E000700038
ENDCHAR
STARTCHAR 004E
ENCODING 78
SWIDTH 345 0
DWIDTH 29 0
BBX 20 55 5 0
BITMAP
01F000
0FFE00
1FFF00
3E0F80
7803C0
F001E0
E000F0
E00070
E00070
E00070
E00070
E00070
E00070
E00070
E00070
E00070
E00070
E00070
E00070
E00070
E00070
E00070
E00070
E00070
E00070
E00070
E00070
E00070
E00070
E00070
E00070
E00070
E00070
E00070
E00070
E00070
E00070
E00070
E00070
E00070
E00070
E00070
E00070
E00070
E00070
E00070
E00070
E00070
E00070
E00070
E00070
E00070
E00070
E00070
E00070
ENDCHAR
STARTCHAR 004F
ENCODING 79
SWIDTH 345 0
DWIDTH 29 0
BBX 20 55 5 0
BITMAP
01F000
0FFE00
1FFF00
3E0F80
7803C0
F001E0
E000F0
E00070
E00070
E00070
E00070
E00070
E00070
E00070
E00070
E00070
E00070
E00070
E00070
E00070
E00070
E00070
E00070
E00070
E00070
E00070
E00070
E00070
E00070
E00070
E00070
E00070
E00070
E00070
E00070
E00070
E00070
E00070
E00070
E00070
E00070
E00070
E00070
E00070
E00070
E00070
E00070
E00070
E000F0
F001E0
7803C0
3E0F80
1FFF00
0FFE00
03F800
ENDCHAR
STARTCHAR 0050
ENCODING 80
SWIDTH 345 0
DWIDTH 29 0
BBX 20 55 5 0
BITMAP
FFF800
FFFE00
FFFF00
E00F80
E003C0
E001E0
E000F0
E00070
E00070
E00070
E00070
E00070
E00070
E00070
E00070
E00070
E00070
E00070
E00070
E000F0
E001F0
E003E0
E00FC0
FFFF80
FFFE00
FFF800
E00000
E00000
E00000
E00000
E00000
E00000
E00000
E00000
E00000
E00000
E00000
E00000
E00000
E00000
E00000
E00000
E00000
E00000
E00000
E00000
E00000
E00000
E00000
E00000
E00000
E00000
E00000
E00000
E00000
ENDCHAR
STARTCHAR 0051
ENCODING 81
SWIDTH 345 0
DWIDTH 29 0
BBX 27 60 5 -5
BITMAP
01F80000
07FE0000
1FFF0000
3E0F8000
7803C000
F001E000
E000F000
E0007000
E0007000
E0007000
E0007000
E0007000
E0007000
E0007000
E0007000
E0007000
E0007000
E0007000
E0007000
E0007000
E0007000
E0007000
E0007000
E0007000
E0007000
E0007000
E0007000
E0007000
E0007000
E0007000
E0007000
E0007000
E0007000
E0007000
E0007000
E0007000
E0007000
E0007000
E0007000
E0007000
E0007000
E0007000
E0007000
E0007000
E0007000
E0007000
E0007000
E0007000
E000F000
F001E000
7803C000
3E0F8000
1FFF0000
3FFE0000
7FFE0000
701F8000
F007E000
E003FFC0
4000FFE0
00003FC0
ENDCHAR
STARTCHAR 0052
ENCODING 82
SWIDTH 345 0
DWIDTH 29 0
BBX 20 55 5 0
BITMAP
FFF800
FFFE00
FFFF00
E00F80
E003C0
E001E0
E000F0
E00070
E00070
E00070
E00070
E00070
E00070
E00070
E00070
E00070
E00070
E00070
E00070
E000F0
E001F0
E003E0
E00FC0
FFFF80
FFFE00
FFFF00
E00F80
E003C0
E001E0
E000F0
E00070
E00070
E00070
E00070
E00070
E00070
E00070
E00070
E00070
E00070
E00070
E00070
E00070
E00070
E00070
E00070
E00070
E00070
E00070
E00070
E00070
E00070
E00070
E00070
E00070
ENDCHAR
STARTCHAR 0053
ENCODING 83
SWIDTH 345 0
DWIDTH 29 0
BBX 20 55 5 0
BITMAP
01F000
0FFE00
1FFF00
3E0F80
7803C0
F001E0
E000E0
E00000
E00000
E00000
E00000
E00000
E00000
E00000
E00000
E00000
E00000
E00000
E00000
E00000
F00000
F80000
7E0000
1FF800
0FFE00
03FF00
000F80
0003C0
0001E0
0000F0
000070
000070
000070
000070
000070
000070
000070
000070
000070
000070
000070
000070
000070
000070
000070
000070
000070
000070
2000F0
F001E0
7803C0
3E0F80
1FFF00
0FFE00
03F800
ENDCHAR
STARTCHAR 0054
ENCODING 84
SWIDTH 345 0
DWIDTH 29 0
BBX 19 55 5 0
BITMAP
01F800
07FE00
1FFF00
3FFF80
7C73C0
F071E0
E070E0
007000
007000
007000
007000
007000
007000
007000
007000
007000
007000
007000
007000
007000
007000
007000
007000
007000
007000
007000
007000
007000
007000
007000
007000
007000
007000
007000
007000
007000
007000
007000
007000
007000
007000
007000
007000
007000
007000
007000
007000
007000
007000
007000
007000
007000
007000
007000
007000
ENDCHAR
STARTCHAR 0055
ENCODING 85
SWIDTH 345 0
DWIDTH 29 0
BBX 20 55 5 0
BITMAP
E00070
E00070
E00070
E00070
E00070
E00070
E00070
E00070
E00070
E00070
E00070
E00070
E00070
E00070
E00070
E00070
E00070
E00070
E00070
E00070
E00070
E00070
E00070
E00070
E00070
E00070
E00070
E00070
E00070
E00070
E00070
E00070
E00070
E00070
E00070
E00070
E00070
E00070
E00070
E00070
E00070
E00070
E00070
E00070
E00070
E00070
E00070
E00070
E000F0
F001E0
7803C0
3E0F80
1FFF00
0FFE00
03F800
ENDCHAR
STARTCHAR 0056
ENCODING 86
SWIDTH 345 0
DWIDTH 29 0
BBX 20 55 5 1
BITMAP
E00070
E000E0
E000E0
E000E0
E000E0
E000E0
7000E0
7001E0
7001C0
7001C0
7001C0
7001C0
7801C0
3801C0
380380
380380
380380
380380
380380
1C0380
1C0700
1C0700
1C0700
1C0700
1C0700
0E0700
0E0F00
0E0E00
0E0E00
0E0E00
0E0E00
0F0E00
070E00
071C00
071C00
071C00
071C00
071C00
039C00
03BC00
03B800
03B800
03B800
03B800
01F800
01F800
01F000
01F000
01F000
01F000
01F000
00F000
00E000
00E000
00E000
ENDCHAR
STARTCHAR 0057
ENCODING 87
SWIDTH 547 0
DWIDTH 46 0
BBX 37 55 5 0
BITMAP
E000700038
E000700038
E000700038
E000700038
E000700038
E000700038
E000700038
E000700038
E000700038
E000700038
E000700038
E000700038
E000700038
E000700038
E000700038
E000700038
E000700038
E000700038
E000700038
E000700038
E000700038
E000700038
E000700038
E000700038
E000700038
E000700038
E000700038
E000700038
E000700038
E000700038
E000700038
E000700038
E000700038
E000700038
E000700038
E000700038
E000700038
E000700038
E000700038
E000700038
E000700038
E000700038
E000700038
E000700038
E000700038
E000700038
E000700038
E000700038
E000F00078
F001F800F0
7803FC01E0
3E0F9F07C0
1FFF0FFF80
0FFE07FF00
03F000FC00
ENDCHAR
STARTCHAR 0058
ENCODING 88
SWIDTH 345 0
DWIDTH 29 0
BBX 21 55 4 1
BITMAP
700078
700070
700070
3800F0
3800E0
3800E0
1C00E0
1C01C0
1C01C0
0E01C0
0E0380
0E0380
0F0380
070700
070700
078700
038F00
038E00
038E00
01DE00
01DC00
01DC00
00FC00
00F800
00F800
007800
007000
007000
007800
00F800
00F800
00FC00
01FC00
01DC00
01DC00
03CE00
038E00
038E00
078700
070700
070700
070380
0E0380
0E0380
0E03C0
1C01C0
1C01C0
1C01E0
3C00E0
3800E0
3800E0
780070
700070
700070
F00038
ENDCHAR
STARTCHAR 0059
ENCODING 89
SWIDTH 345 0
DWIDTH 29 0
BBX 20 55 5 0
BITMAP
E00070
E00070
E00070
E00070
E00070
E00070
E00070
E00070
E00070
E00070
E00070
E00070
E00070
E00070
E00070
E00070
E00070
E00070
E00070
E00070
E000F0
F001E0
7C07C0
3FFF80
0FFF00
03FC00
007000
007000
007000
007000
007000
007000
007000
007000
007000
007000
007000
007000
007000
007000
007000
007000
007000
007000
007000
007000
007000
007000
007000
007000
007000
007000
007000
007000
007000
ENDCHAR
STARTCHAR 005A
ENCODING 90
SWIDTH 345 0
DWIDTH 29 0
BBX 20 55 5 0
BITMAP
01F800
07FE00
1FFF00
3E0F80
7803C0
F001E0
E000F0
0000E0
0000E0
0001C0
0001C0
0003C0
000380
000380
000700
000700
000F00
000E00
000E00
001C00
001C00
003C00
003800
003800
007000
007000
00F000
00E000
00E000
01C000
01C000
03C000
038000
038000
078000
070000
0F0000
0E0000
0E0000
1E0000
1C0000
3C0000
380000
380000
780000
700000
F00000
E00000
E00040
F000E0
7803C0
3E0F80
1FFF00
07FE00
01F800
ENDCHAR
STARTCHAR 005B
ENCODING 91
SWIDTH 214 0
DWIDTH 18 0
BBX 9 72 5 -9
BITMAP
FF80
FF80
FF80
E000
E000
E000
E000
E000
E000
E000
E000
E000
E000
E000
E000
E000
E000
E000
E000
E000
E000
E000
E000
E000
E000
E000
E000
E000
E000
E000
E000
E000
E000
E000
E000
E000
E000
E000
E000
E000
E000
E000
E000
E000
E000
E000
E000
E000
E000
E000
E000
E000
E000
E000
E000
E000
E000
E000
E000
E000
E000
E000
E000
E000
E000
E000
E000
E000
E000
FF80
FF80
FF80
ENDCHAR
STARTCHAR 005C
ENCODING 92
SWIDTH 345 0
DWIDTH 29 0
BBX 20 55 5 1
BITMAP
E00000
E00000
E00000
700000
700000
700000
380000
380000
380000
1C0000
1C0000
1C0000
1E0000
0E0000
0E0000
0F0000
070000
070000
070000
038000
038000
038000
01C000
01C000
01C000
00E000
00E000
00E000
00F000
007000
007000
007800
003800
003800
003800
001C00
001C00
001C00
000E00
000E00
000E00
000700
000700
000700
000780
000380
000380
0003C0
0001C0
0001C0
0001C0
0000E0
0000E0
0000E0
000070
ENDCHAR
STARTCHAR 005D
ENCODING 93
SWIDTH 214 0
DWIDTH 18 0
BBX 9 72 5 -9
BITMAP
FF80
FF80
FF80
0380
0380
0380
0380
0380
0380
0380
0380
0380
0380
0380
0380
0380
0380
0380
0380
0380
0380
0380
0380
0380
0380
0380
0380
0380
0380
0380
0380
0380
0380
0380
0380
0380
0380
0380
0380
0380
0380
0380
0380
0380
0380
0380
0380
0380
0380
0380
0380
0380
0380
0380
0380
0380
0380
0380
0380
0380
0380
0380
0380
0380
0380
0380
0380
0380
0380
FF80
FF80
FF80
ENDCHAR
STARTCHAR 005E
ENCODING 94
SWIDTH 273 0
DWIDTH 23 0
BBX 14 12 5 42
BITMAP
0700
0780
0F80
0FC0
1DC0
1CE0
3CE0
38F0
7870
7078
F038
E03C
ENDCHAR
STARTCHAR 005F
ENCODING 95
SWIDTH 476 0
DWIDTH 40 0
BBX 30 3 5 -17
BITMAP
FFFFFFFC
FFFFFFFC
FFFFFFFC
ENDCHAR
STARTCHAR 0060
ENCODING 96
SWIDTH 238 0
DWIDTH 20 0
BBX 11 12 4 42
BITMAP
F000
7000
3800
3C00
1C00
0E00
0F00
0700
0780
03C0
01C0
01E0
ENDCHAR
STARTCHAR 0061
ENCODING 97
SWIDTH 345 0
DWIDTH 29 0
BBX 20 37 5 0
BITMAP
03F800
0FFE00
1FFF00
7E0FC0
F803E0
E001F0
0000F0
000070
000070
000070
000070
000070
000070
000070
03F070
0FFE70
1FFF70
3E0FF0
7803F0
F001F0
E000F0
E00070
E00070
E00070
E00070
E00070
E00070
E00070
E00070
E00070
E000F0
F001F0
7803F0
7E0FF0
1FFF70
0FFE70
03F070
ENDCHAR
STARTCHAR 0062
ENCODING 98
SWIDTH 345 0
DWIDTH 29 0
BBX 20 55 5 0
BITMAP
E00000
E00000
E00000
E00000
E00000
E00000
E00000
E00000
E00000
E00000
E00000
E00000
E00000
E00000
E00000
E00000
E00000
E00000
E1F800
E7FE00
FFFF00
FC07C0
F001E0
E000F0
E00070
E00070
E00070
E00070
E00070
E00070
E00070
E00070
E00070
E00070
E00070
E00070
E00070
E00070
E00070
E00070
E00070
E00070
E00070
E00070
E00070
E00070
E00070
E00070
E000F0
F001E0
F803E0
FE0FC0
FFFF00
E7FE00
E1F800
ENDCHAR
STARTCHAR 0063
ENCODING 99
SWIDTH 345 0
DWIDTH 29 0
BBX 20 37 5 0
BITMAP
03F800
0FFE00
1FFF00
7E0FC0
F803E0
F000F0
E00000
E00000
E00000
E00000
E00000
E00000
E00000
E00000
E00000
E00000
E00000
E00000
E00000
E00000
E00000
E00000
E00000
E00000
E00000
E00000
E00000
E00000
E00000
E00000
E00000
F000E0
7803E0
3E0FC0
1FFF00
0FFE00
03F800
ENDCHAR
STARTCHAR 0064
ENCODING 100
SWIDTH 345 0
DWIDTH 29 0
BBX 20 55 5 0
BITMAP
000070
000070
000070
000070
000070
000070
000070
000070
000070
000070
000070
000070
000070
000070
000070
000070
000070
000070
03F070
0FFE70
1FFF70
7C07F0
F001F0
E000F0
E00070
E00070
E00070
E00070
E00070
E00070
E00070
E00070
E00070
E00070
E00070
E00070
E00070
E00070
E00070
E00070
E00070
E00070
E00070
E00070
E00070
E00070
E00070
E00070
E000F0
F001F0
7803F0
3E0FF0
1FFF70
0FFE70
03F070
ENDCHAR
STARTCHAR 0065
ENCODING 101
SWIDTH 345 0
DWIDTH 29 0
BBX 20 37 5 0
BITMAP
03F800
0FFE00
1FFF00
7E0FC0
F803E0
F001F0
E000F0
E00070
E00070
E00070
E00070
E00070
E00070
E00070
E00070
E00070
E000F0
F001E0
F803C0
FF0F80
FFFF00
E7FE00
E1F800
E00000
E00000
E00000
E00000
E00000
E00000
E00000
E00080
F001E0
7803E0
3E0FC0
1FFF00
0FFE00
03F800
ENDCHAR
STARTCHAR 0066
ENCODING 102
SWIDTH 261 0
DWIDTH 22 0
BBX 19 55 5 0
BITMAP
01F000
0FFE00
1FFF00
3E0F80
7803C0
F001E0
E000E0
E00000
E00000
E00000
E00000
E00000
E00000
E00000
E00000
E00000
E00000
E00000
FFFC00
FFFC00
FFFC00
E00000
E00000
E00000
E00000
E00000
E00000
E00000
E00000
E00000
E00000
E00000
E00000
E00000
E00000
E00000
E00000
E00000
E00000
E00000
E00000
E00000
E00000
E00000
E00000
E00000
E00000
E00000
E00000
E00000
E00000
E00000
E00000
E00000
E00000
ENDCHAR
STARTCHAR 0067
ENCODING 103
SWIDTH 345 0
DWIDTH 29 0
BBX 20 54 5 -17
BITMAP
03F070
0FFE70
1FFF70
7C07F0
F001F0
E000F0
E00070
E00070
E00070
E00070
E00070
E00070
E00070
E00070
E00070
E00070
E00070
E00070
E00070
E00070
E00070
E00070
E00070
E00070
E00070
E00070
E00070
E00070
E00070
E00070
E000F0
F001F0
7803F0
7E0FF0
1FFF70
0FFE70
03F070
000070
000070
000070
000070
000070
000070
000070
000070
000070
000070
0000F0
0001F0
0003E0
000FC0
003F00
003E00
003800
ENDCHAR
STARTCHAR 0068
ENCODING 104
SWIDTH 345 0
DWIDTH 29 0
BBX 20 55 5 0
BITMAP
E00000
E00000
E00000
E00000
E00000
E00000
E00000
E00000
E00000
E00000
E00000
E00000
E00000
E00000
E00000
E00000
E00000
E00000
E1F800
EFFE00
FFFF00
FE0FC0
F803E0
F001F0
E000F0
E00070
E00070
E00070
E00070
E00070
E00070
E00070
E00070
E00070
E00070
E00070
E00070
E00070
E00070
E00070
E00070
E00070
E00070
E00070
E00070
E00070
E00070
E00070
E00070
E00070
E00070
E00070
E00070
E00070
E00070
ENDCHAR
STARTCHAR 0069
ENCODING 105
SWIDTH 142 0
DWIDTH 12 0
BBX 3 49 5 0
BITMAP
E0
E0
E0
E0
E0
E0
00
00
00
00
00
00
E0
E0
E0
E0
E0
E0
E0
E0
E0
E0
E0
E0
E0
E0
E0
E0
E0
E0
E0
E0
E0
E0
E0
E0
E0
E0
E0
E0
E0
E0
E0
E0
E0
E0
E0
E0
E0
ENDCHAR
STARTCHAR 006A
ENCODING 106
SWIDTH 154 0
DWIDTH 13 0
BBX 10 66 -2 -17
BITMAP
01C0
01C0
01C0
01C0
01C0
01C0
0000
0000
0000
0000
0000
0000
01C0
01C0
01C0
01C0
01C0
01C0
01C0
01C0
01C0
01C0
01C0
01C0
01C0
01C0
01C0
01C0
01C0
01C0
01C0
01C0
01C0
01C0
01C0
01C0
01C0
01C0
01C0
01C0
01C0
01C0
01C0
01C0
01C0
01C0
01C0
01C0
01C0
01C0
01C0
01C0
01C0
01C0
01C0
01C0
01C0
01C0
01C0
01C0
03C0
0780
1F00
FE00
F800
E000
ENDCHAR
STARTCHAR 006B
ENCODING 107
SWIDTH 345 0
DWIDTH 29 0
BBX 20 55 5 0
BITMAP
E00000
E00000
E00000
E00000
E00000
E00000
E00000
E00000
E00000
E00000
E00000
E00000
E00000
E00000
E00000
E00000
E00000
E00000
E00070
E00070
E00070
E00070
E00070
E00070
E00070
E000F0
E001E0
E003E0
E00F80
E1FF00
E7FE00
FFFF00
FE0F80
F803C0
F001E0
E000F0
E00070
E00070
E00070
E00070
E00070
E00070
E00070
E00070
E00070
E00070
E00070
E00070
E00070
E00070
E00070
E00070
E00070
E00070
E00070
ENDCHAR
STARTCHAR 006C
ENCODING 108
SWIDTH 142 0
DWIDTH 12 0
BBX 3 55 5 0
BITMAP
E0
E0
E0
E0
E0
E0
E0
E0
E0
E0
E0
E0
E0
E0
E0
E0
E0
E0
E0
E0
E0
E0
E0
E0
E0
E0
E0
E0
E0
E0
E0
E0
E0
E0
E0
E0
E0
E0
E0
E0
E0
E0
E0
E0
E0
E0
E0
E0
E0
E0
E0
E0
E0
E0
E0
ENDCHAR
STARTCHAR 006D
ENCODING 109
SWIDTH 547 0
DWIDTH 46 0
BBX 37 37 5 0
BITMAP
E1F800FC00
EFFE07FF00
FFFF0FFF80
FE0FDF07E0
F803FC01F0
F001F800F8
E000F00078
E000700038
E000700038
E000700038
E000700038
E000700038
E000700038
E000700038
E000700038
E000700038
E000700038
E000700038
E000700038
E000700038
E000700038
E000700038
E000700038
E000700038
E000700038
E000700038
E000700038
E000700038
E000700038
E000700038
E000700038
E000700038
E000700038
E000700038
E000700038
E000700038
E000700038
ENDCHAR
STARTCHAR 006E
ENCODING 110
SWIDTH 345 0
DWIDTH 29 0
BBX 20 37 5 0
BITMAP
E1F800
EFFE00
FFFF00
FE0FC0
F803E0
F001F0
E000F0
E00070
E00070
E00070
E00070
E00070
E00070
E00070
E00070
E00070
E00070
E00070
E00070
E00070
E00070
E00070
E00070
E00070
E00070
E00070
E00070
E00070
E00070
E00070
E00070
E00070
E00070
E00070
E00070
E00070
E00070
ENDCHAR
STARTCHAR 006F
ENCODING 111
SWIDTH 345 0
DWIDTH 29 0
BBX 20 37 5 0
BITMAP
03F800
0FFE00
1FFF00
7E0FC0
F803E0
F001F0
E000F0
E00070
E00070
E00070
E00070
E00070
E00070
E00070
E00070
E00070
E00070
E00070
E00070
E00070
E00070
E00070
E00070
E00070
E00070
E00070
E00070
E00070
E00070
E00070
E000F0
F001E0
7803E0
3E0FC0
1FFF00
0FFE00
03F800
ENDCHAR
STARTCHAR 0070
ENCODING 112
SWIDTH 345 0
DWIDTH 29 0
BBX 20 54 5 -17
BITMAP
E1F800
E7FE00
FFFF00
FC07C0
F001E0
E000F0
E00070
E00070
E00070
E00070
E00070
E00070
E00070
E00070
E00070
E00070
E00070
E00070
E00070
E00070
E00070
E00070
E00070
E00070
E00070
E00070
E00070
E00070
E00070
E00070
E000F0
F001E0
F803E0
FE0FC0
FFFF00
E7FE00
E1F800
E00000
E00000
E00000
E00000
E00000
E00000
E00000
E00000
E00000
E00000
E00000
E00000
E00000
E00000
E00000
E00000
E00000
ENDCHAR
STARTCHAR 0071
ENCODING 113
SWIDTH 345 0
DWIDTH 29 0
BBX 20 54 5 -17
BITMAP
03F070
0FFE70
1FFF70
7C07F0
F001F0
E000F0
E00070
E00070
E00070
E00070
E00070
E00070
E00070
E00070
E00070
E00070
E00070
E00070
E00070
E00070
E00070
E00070
E00070
E00070
E00070
E00070
E00070
E00070
E00070
E00070
E000F0
F001F0
7803F0
7E0FF0
1FFF70
0FFE70
03F070
000070
000070
000070
000070
000070
000070
000070
000070
000070
000070
000070
000070
000070
000070
000070
000070
000070
ENDCHAR
STARTCHAR 0072
ENCODING 114
SWIDTH 309 0
DWIDTH 26 0
BBX 20 37 5 0
BITMAP
E1F800
EFFE00
FFFF00
FE0FC0
F803E0
F000F0
E00000
E00000
E00000
E00000
E00000
E00000
E00000
E00000
E00000
E00000
E00000
E00000
E00000
E00000
E00000
E00000
E00000
E00000
E00000
E00000
E00000
E00000
E00000
E00000
E00000
E00000
E00000
E00000
E00000
E00000
E00000
ENDCHAR
STARTCHAR 0073
ENCODING 115
SWIDTH 345 0
DWIDTH 29 0
BBX 20 37 5 0
BITMAP
03F800
0FFE00
1FFF00
7E0FC0
F803E0
F000F0
E00000
E00000
E00000
E00000
E00000
E00000
E00000
E00000
F00000
780000
3E0000
1FF800
0FFE00
01FF00
000FC0
0003E0
0001E0
0000F0
000070
000070
000070
000070
000070
000070
2000F0
F001E0
7803C0
3E0F80
1FFF00
0FFE00
03F800
ENDCHAR
STARTCHAR 0074
ENCODING 116
SWIDTH 250 0
DWIDTH 21 0
BBX 14 49 5 0
BITMAP
E000
E000
E000
E000
E000
E000
E000
E000
E000
E000
E000
E000
FFFC
FFFC
FFFC
E000
E000
E000
E000
E000
E000
E000
E000
E000
E000
E000
E000
E000
E000
E000
E000
E000
E000
E000
E000
E000
E000
E000
E000
E000
E000
E000
E000
F000
7800
3E00
1FC0
0FC0
03C0
ENDCHAR
STARTCHAR 0075
ENCODING 117
SWIDTH 345 0
DWIDTH 29 0
BBX 20 37 5 0
BITMAP
E00070
E00070
E00070
E00070
E00070
E00070
E00070
E00070
E00070
E00070
E00070
E00070
E00070
E00070
E00070
E00070
E00070
E00070
E00070
E00070
E00070
E00070
E00070
E00070
E00070
E00070
E00070
E00070
E00070
E00070
E000F0
F001F0
7803F0
3E0FF0
1FFF70
0FFE70
03F070
ENDCHAR
STARTCHAR 0076
ENCODING 118
SWIDTH 309 0
DWIDTH 26 0
BBX 20 37 3 1
BITMAP
E00070
E00070
F000E0
7000E0
7000E0
7000E0
7001E0
3801C0
3801C0
3801C0
3803C0
1C0380
1C0380
1C0380
1C0380
1E0700
0E0700
0E0700
0E0700
0E0E00
070E00
070E00
070E00
071E00
039C00
039C00
039C00
03BC00
01F800
01F800
01F800
01F800
01F000
00F000
00F000
00F000
00E000
ENDCHAR
STARTCHAR 0077
ENCODING 119
SWIDTH 523 0
DWIDTH 44 0
BBX 37 37 3 0
BITMAP
E000700038
E000700038
E000700038
E000700038
E000700038
E000700038
E000700038
E000700038
E000700038
E000700038
E000700038
E000700038
E000700038
E000700038
E000700038
E000700038
E000700038
E000700038
E000700038
E000700038
E000700038
E000700038
E000700038
E000700038
E000700038
E000700038
E000700038
E000700038
E000700038
E000700038
E000700038
F000F80078
7803FC01F0
3E079F03E0
1FFF0FFFC0
0FFE03FF00
01F800FC00
ENDCHAR
STARTCHAR 0078
ENCODING 120
SWIDTH 321 0
DWIDTH 27 0
BBX 20 37 3 1
BITMAP
E000F0
7000E0
7000E0
7801C0
3801C0
3C0380
1C0380
1E0780
0E0700
0F0F00
070E00
079E00
039C00
03BC00
01F800
01F800
00F000
00F000
00F000
00F000
01F800
01F800
03FC00
039C00
079E00
070E00
0F0F00
0E0700
1E0700
1C0380
3C0380
3801C0
3801C0
7001E0
7000E0
F000F0
E00070
ENDCHAR
STARTCHAR 0079
ENCODING 121
SWIDTH 345 0
DWIDTH 29 0
BBX 20 54 5 -17
BITMAP
E00070
E00070
E00070
E00070
E00070
E00070
E00070
E00070
E00070
E00070
E00070
E00070
E00070
E00070
E00070
E00070
E00070
E00070
E00070
E00070
E00070
E00070
E00070
E00070
E00070
E00070
E00070
E00070
E00070
E00070
E000F0
F001F0
7803F0
3E0FF0
1FFF70
0FFE70
03F070
000070
000070
000070
000070
000070
000070
000070
000070
000070
000070
0000F0
0001E0
0003E0
000FC0
003F00
003E00
003800
ENDCHAR
STARTCHAR 007A
ENCODING 122
SWIDTH 345 0
DWIDTH 29 0
BBX 20 37 5 0
BITMAP
03F800
0FFE00
1FFF00
3E0FC0
7801E0
E000F0
0000E0
0001C0
0003C0
000380
000780
000F00
000E00
001E00
003C00
003800
007800
00F000
00E000
01E000
03C000
038000
078000
0F0000
0E0000
1E0000
3C0000
380000
780000
700000
F00000
F000E0
7803C0
3E0F80
1FFF00
07FE00
01F800
ENDCHAR
STARTCHAR 007B
ENCODING 123
SWIDTH 309 0
DWIDTH 26 0
BBX 17 72 5 -9
BITMAP
000380
001F80
003F80
007C00
00F000
01E000
01C000
01C000
01C000
01C000
01C000
01C000
01C000
01C000
01C000
01C000
01C000
01C000
01C000
01C000
01C000
01C000
01C000
01C000
01C000
01C000
01C000
01C000
01C000
01C000
03C000
078000
0F8000
3F0000
FC0000
F80000
FC0000
3E0000
0F0000
078000
03C000
01C000
01C000
01C000
01C000
01C000
01C000
01C000
01C000
01C000
01C000
01C000
01C000
01C000
01C000
01C000
01C000
01C000
01C000
01C000
01C000
01C000
01C000
01C000
01C000
01C000
01E000
00F000
007C00
003F80
001F80
000380
ENDCHAR
STARTCHAR 007C
ENCODING 124
SWIDTH 142 0
DWIDTH 12 0
BBX 3 71 5 -8
BITMAP
E0
E0
E0
E0
E0
E0
E0
E0
E0
E0
E0
E0
E0
E0
E0
E0
E0
E0
E0
E0
E0
E0
E0
E0
E0
E0
E0
E0
E0
E0
E0
E0
E0
E0
E0
E0
E0
E0
E0
E0
E0
E0
E0
E0
E0
E0
E0
E0
E0
E0
E0
E0
E0
E0
E0
E0
E0
E0
E0
E0
E0
E0
E0
E0
E0
E0
E0
E0
E0
E0
E0
ENDCHAR
STARTCHAR 007D
ENCODING 125
SWIDTH 309 0
DWIDTH 26 0
BBX 17 72 5 -9
BITMAP
E00000
F80000
FC0000
3E0000
0F0000
078000
03C000
01C000
01C000
01C000
01C000
01C000
01C000
01C000
01C000
01C000
01C000
01C000
01C000
01C000
01C000
01C000
01C000
01C000
01C000
01C000
01C000
01C000
01C000
01C000
01C000
01E000
00F000
007C00
003F80
001F80
003F80
007C00
00F000
01E000
01C000
01C000
01C000
01C000
01C000
01C000
01C000
01C000
01C000
01C000
01C000
01C000
01C000
01C000
01C000
01C000
01C000
01C000
01C000
01C000
01C000
01C000
01C000
01C000
01C000
03C000
078000
0F0000
3E0000
FC0000
F80000
C00000
ENDCHAR
STARTCHAR 007E
ENCODING 126
SWIDTH 464 0
DWIDTH 39 0
BBX 30 8 5 24
BITMAP
07E00000
1FF80000
3FFE0018
781F003C
F007C078
E003FFF0
6001FFF0
00003FE0
ENDCHAR
STARTCHAR 00A0
ENCODING 160
SWIDTH 1023 0
DWIDTH 86 0
BBX 77 66 5 1
BITMAP
01E000001C0000000000
01000080220004000000
01000080220004000000
010700E02288C7780000
01CD3C80228924840000
01094480128A24840000
01094480128A244C0000
01094480328A24780000
010944802A8A24400000
010D44802A8924400000
010600801C78C4300000
00000000040000000000
00000000040000000000
00000000180000000000
00000000000000000000
00000000000000000000
00000000000000000000
00000000000000000000
80004000000000000000
80084000000000000000
80004000000000000000
D0804008022600000800
E957DE093E2803A4A400
4A165209462802A4A400
49169209462802A46400
48CE9C09462802646400
484E9009462802646400
488A9C0F2DE802D6C000
00010001100001090000
00000001000000000000
00000001000000000000
00000000000000000000
00000000000000000000
00000000000000000000
00000000000000000000
00000000000000000000
00002000000000000000
00002000000000000000
00002000000000000000
E918E01E70042300E670
35292021F80A34810148
252A20219FE934410148
252A2021980934810748
252A202198095B010948
252A2821980958010948
2121F00170061700C748
00001000000000000000
00000000000000000000
00000000000000000000
00000000000000000000
00000000000000000000
00000000000000000000
00000000000000000000
00000000000000000000
00000000000000000000
00000000000100000000
00000000000100000000
C63DC083220779CCFC00
290500A4A208F6229200
291D00A4A208F42E9200
296500A4A208B2729200
2E4500A4A208B3A29200
283D00A4A208B35E9200
060100731C07B0808000
00000010000000000000
00000020000000000000
ENDCHAR
STARTCHAR 00A1
ENCODING 161
SWIDTH 142 0
DWIDTH 12 0
BBX 3 54 5 -8
BITMAP
E0
E0
E0
E0
E0
E0
00
00
00
00
00
00
00
00
E0
E0
E0
E0
E0
E0
E0
E0
E0
E0
E0
E0
E0
E0
E0
E0
E0
E0
E0
E0
E0
E0
E0
E0
E0
E0
E0
E0
E0
E0
E0
E0
E0
E0
E0
E0
E0
E0
E0
E0
ENDCHAR
STARTCHAR 00A2
ENCODING 162
SWIDTH 345 0
DWIDTH 29 0
BBX 20 37 5 0
BITMAP
007000
007000
007000
03FC00
0FFF00
1FFF80
7C73C0
F071E0
E070F0
E07000
E07000
E07000
E07000
E07000
E07000
E07000
E07000
E07000
E07000
E07000
E07000
E07000
E07000
E07000
E07000
E07000
E07000
E07000
E070F0
F871E0
7E77C0
1FFF80
0FFE00
03F800
007000
007000
007000
ENDCHAR
STARTCHAR 00A3
ENCODING 163
SWIDTH 345 0
DWIDTH 29 0
BBX 20 55 5 0
BITMAP
01F000
0FFE00
1FFF00
3E0F80
7803C0
F001E0
E000E0
C00000
C00000
C00000
C00000
C00000
C00000
C00000
C00000
C00000
C00000
C00000
C00000
C00000
C00000
FFFC00
FFFC00
FFFC00
C00000
C00000
C00000
C00000
C00000
FFFC00
FFFC00
FFFC00
C00000
C00000
C00000
C00000
C00000
C00000
C00000
C00000
C00000
C00000
C00000
C00000
C00000
C00000
C00000
C00000
E00000
F00000
780000
3E0000
3FFFF0
7FFFF0
FFFFF0
ENDCHAR
STARTCHAR 00A4
ENCODING 164
SWIDTH 440 0
DWIDTH 37 0
BBX 28 28 5 15
BITMAP
40000040
E0000060
F01F80F0
787FE1E0
3DFFFBC0
1FC03F80
0F801F00
0E000780
0E000380
0E000380
0E000380
0E000380
0E000380
0E000380
0E000380
0E000380
0E000380
0E000380
0E000380
0E000380
0E000780
0F000F00
1F801F00
3FE07F80
7DFFFBC0
F87FE1E0
F01F80F0
60000060
ENDCHAR
STARTCHAR 00A5
ENCODING 165
SWIDTH 345 0
DWIDTH 29 0
BBX 20 55 5 0
BITMAP
E00070
E00070
E00070
E00070
E00070
E00070
E00070
E00070
E00070
E00070
E00070
E00070
E00070
E00070
E00070
E00070
E00070
E00070
E00070
E00070
E000F0
F001E0
7803C0
3E0F80
0FFF00
03FC00
007000
007000
007000
007000
007000
007000
007000
007000
007000
FFFFF0
FFFFF0
FFFFF0
007000
007000
007000
007000
007000
FFFFF0
FFFFF0
FFFFF0
007000
007000
007000
007000
007000
007000
007000
007000
007000
ENDCHAR
STARTCHAR 00A6
ENCODING 166
SWIDTH 142 0
DWIDTH 12 0
BBX 3 60 5 -1
BITMAP
E0
E0
E0
E0
E0
E0
E0
E0
E0
E0
E0
E0
E0
E0
E0
E0
E0
E0
E0
E0
E0
E0
E0
E0
E0
E0
E0
00
00
00
00
00
00
E0
E0
E0
E0
E0
E0
E0
E0
E0
E0
E0
E0
E0
E0
E0
E0
E0
E0
E0
E0
E0
E0
E0
E0
E0
E0
E0
ENDCHAR
STARTCHAR 00A7
ENCODING 167
SWIDTH 345 0
DWIDTH 29 0
BBX 20 54 5 -7
BITMAP
03F800
0FFE00
1FFF00
7E0FC0
F803E0
F000E0
E00000
E00000
E00000
E00000
E00000
E00000
E00000
E00000
F00000
780000
3E0000
1FF800
0FFE00
1FFF00
3E0F80
7803C0
F001E0
E000F0
E00070
E00070
E00070
E00070
E00070
E00070
E000F0
F001E0
F803E0
7E0FC0
1FFF80
0FFE00
03FF00
000F80
0003C0
0001E0
0000F0
000070
000070
000070
000070
000070
000070
0000F0
E001F0
F803E0
7E0FC0
3FFF80
0FFE00
03F800
ENDCHAR
STARTCHAR 00A8
ENCODING 168
SWIDTH 238 0
DWIDTH 20 0
BBX 12 6 5 46
BITMAP
E070
E070
E070
E070
E070
E070
ENDCHAR
STARTCHAR 00A9
ENCODING 169
SWIDTH 357 0
DWIDTH 30 0
BBX 21 36 5 18
BITMAP
1800C0
7800E0
F800F0
F00078
E00038
E0F038
E3FC38
E7FF38
E78638
E70038
E70038
E70038
E70038
E70038
E70038
E70038
E70038
E70038
E70038
E70038
E70038
E70038
E70038
E70038
E70038
E70038
E70038
E70038
E78738
E7FE38
E3FC38
E0F038
F00078
F800F8
7800E0
1800C0
ENDCHAR
STARTCHAR 00AA
ENCODING 170
SWIDTH 345 0
DWIDTH 29 0
BBX 20 29 5 26
BITMAP
03F800
0FFE00
1FFF00
3E0F80
7803C0
F001E0
2000F0
000070
000070
000070
03F070
0FFE70
1FFF70
3E0FF0
7803F0
F001F0
E000F0
E00070
E00070
E00070
E00070
E00070
E000F0
F001F0
7803F0
3E0FF0
1FFF70
0FFE70
03F070
ENDCHAR
STARTCHAR 00AB
ENCODING 171
SWIDTH 357 0
DWIDTH 30 0
BBX 21 20 5 14
BITMAP
004008
00C018
01C038
038070
0701E0
1F03E0
3E07C0
7C0F80
F81F00
F83F00
F03E00
F83F00
F81F00
7C0F80
3E07C0
1F03C0
0F01E0
038070
018030
008010
ENDCHAR
STARTCHAR 00AC
ENCODING 172
SWIDTH 440 0
DWIDTH 37 0
BBX 28 10 5 16
BITMAP
FFFFFC00
FFFFFE00
FFFFFF00
00000780
000003C0
000001C0
000000E0
000000E0
000000E0
00000070
ENDCHAR
STARTCHAR 00AD
ENCODING 173
SWIDTH 416 0
DWIDTH 35 0
BBX 26 3 5 23
BITMAP
FFFFFFC0
FFFFFFC0
FFFFFFC0
ENDCHAR
STARTCHAR 00AE
ENCODING 174
SWIDTH 357 0
DWIDTH 30 0
BBX 21 36 5 18
BITMAP
180180
7801E0
F801F0
F000F8
E00038
E7F038
E7FC38
E7FF38
E70F38
E70738
E70738
E70738
E70738
E70738
E70738
E70E38
E7F838
E7FC38
E7FE38
E71F38
E70738
E70738
E70738
E70738
E70738
E70738
E70738
E70738
E70738
E70738
E70738
E70738
F000F8
F801F8
7801E0
180180
ENDCHAR
STARTCHAR 00B0
ENCODING 176
SWIDTH 273 0
DWIDTH 23 0
BBX 14 21 5 36
BITMAP
0F80
1FC0
3FE0
38E0
7070
7070
F038
E038
E03C
E01C
E01C
E01C
E038
E038
6078
7070
7070
38E0
3FE0
1FC0
0F80
ENDCHAR
STARTCHAR 00B1
ENCODING 177
SWIDTH 416 0
DWIDTH 35 0
BBX 27 32 5 5
BITMAP
000E0000
000E0000
000E0000
000E0000
000E0000
000E0000
000E0000
000E0000
000E0000
000E0000
000E0000
FFFFFFE0
FFFFFFE0
FFFFFFE0
000E0000
000E0000
000E0000
000E0000
000E0000
000E0000
000E0000
000E0000
000E0000
000E0000
000E0000
00000000
00000000
00000000
00000000
FFFFFFE0
FFFFFFE0
FFFFFFE0
ENDCHAR
STARTCHAR 00B2
ENCODING 178
SWIDTH 273 0
DWIDTH 23 0
BBX 14 38 5 17
BITMAP
0F80
3FE0
7FF0
F8F8
E03C
E01C
E01C
001C
001C
001C
001C
001C
001C
001C
0038
00F8
0FF0
3FE0
7F80
F800
E000
E000
E000
E000
E000
E000
E000
E000
E000
E000
E000
E000
E000
E000
F838
7FF0
3FE0
0F80
ENDCHAR
STARTCHAR 00B3
ENCODING 179
SWIDTH 273 0
DWIDTH 23 0
BBX 14 38 5 17
BITMAP
0F80
3FE0
7FF0
F8F8
E03C
E01C
E01C
001C
001C
001C
001C
001C
001C
001C
0038
0078
00F0
00E0
00F0
0078
003C
001C
001C
001C
001C
001C
001C
001C
001C
001C
001C
001C
E01C
E03C
F0F8
7FF0
3FE0
0F80
ENDCHAR
STARTCHAR 00B4
ENCODING 180
SWIDTH 238 0
DWIDTH 20 0
BBX 11 12 4 44
BITMAP
01E0
01C0
03C0
0780
0700
0F00
1E00
1C00
3C00
3800
7000
F000
ENDCHAR
STARTCHAR 00B5
ENCODING 181
SWIDTH 345 0
DWIDTH 29 0
BBX 20 48 5 -11
BITMAP
E00070
E00070
E00070
E00070
E00070
E00070
E00070
E00070
E00070
E00070
E00070
E00070
E00070
E00070
E00070
E00070
E00070
E00070
E00070
E00070
E00070
E00070
E00070
E00070
E00070
E00070
E00070
E00070
E00070
E00070
E000F0
F001E0
F803C0
FE0F80
FFFF00
EFFE00
E1F000
E07800
E03C00
E01E00
E00F80
E007F0
E003F0
E000F0
E00000
E00000
E00000
E00000
ENDCHAR
STARTCHAR 00B6
ENCODING 182
SWIDTH 369 0
DWIDTH 31 0
BBX 22 59 5 -5
BITMAP
01FFFC
0FFFFC
1FFFFC
3FFF1C
7FFF1C
FFFF1C
FFFF1C
FFFF1C
FFFF1C
FFFF1C
FFFF1C
FFFF1C
FFFF1C
FFFF1C
FFFF1C
FFFF1C
FFFF1C
FFFF1C
FFFF1C
FFFF1C
FFFF1C
FFFF1C
7FFF1C
1FFF1C
0FFF1C
03FF1C
00071C
00071C
00071C
00071C
00071C
00071C
00071C
00071C
00071C
00071C
00071C
00071C
00071C
00071C
00071C
00071C
00071C
00071C
00071C
00071C
00071C
00071C
00071C
00071C
00071C
00071C
00071C
00071C
00071C
00071C
00071C
00071C
00071C
ENDCHAR
STARTCHAR 00B7
ENCODING 183
SWIDTH 142 0
DWIDTH 12 0
BBX 3 6 5 23
BITMAP
E0
E0
E0
E0
E0
E0
ENDCHAR
STARTCHAR 00B8
ENCODING 184
SWIDTH 226 0
DWIDTH 19 0
BBX 10 18 5 -15
BITMAP
E000
E000
E000
E000
F800
FC00
3F00
0F00
0780
03C0
01C0
03C0
07C0
0F80
3F00
FC00
F800
E000
ENDCHAR
STARTCHAR 00B9
ENCODING 185
SWIDTH 273 0
DWIDTH 23 0
BBX 14 38 5 17
BITMAP
0380
0380
0380
0380
0380
0380
0380
0380
0380
0380
0380
0380
0380
0380
0380
0380
0380
0380
0380
0380
0380
0380
0380
0380
0380
0380
0380
0380
0380
0380
0380
0380
0380
0380
C39C
73B8
3FE0
0F80
ENDCHAR
STARTCHAR 00BA
ENCODING 186
SWIDTH 273 0
DWIDTH 23 0
BBX 14 16 5 41
BITMAP
0F80
3FE0
3FF0
78F0
F078
E03C
E03C
E01C
E01C
E03C
E038
7070
78F0
3FE0
1FC0
0F80
ENDCHAR
STARTCHAR 00BB
ENCODING 187
SWIDTH 357 0
DWIDTH 30 0
BBX 21 20 5 14
BITMAP
002000
803000
C03800
E01C00
780E00
7C0F80
3E07C0
1F03E0
0F81F0
07C1F8
07C0F8
07C0F8
0F81F0
1F03E0
3E07C0
3C0780
780F00
F01E00
E01800
801000
ENDCHAR
STARTCHAR 00BC
ENCODING 188
SWIDTH 654 0
DWIDTH 55 0
BBX 45 55 5 -1
BITMAP
038000038000
038000070000
038000070000
038000070000
0380000E0000
0380000E0000
0380000E0000
0380001C0000
0380001C0000
0380001C0000
0380003C0000
038000380000
038000380000
038000780000
038000700000
038000700000
038000700000
038000E01C00
038000E01C00
038000E01C00
038001C01C00
038001C03C00
038001C03800
038003803800
038003803800
038003807800
038007807000
0380070071C0
0380070071C0
03800F0071C0
03800E00E1C0
03800E00E1C0
03801E00E1C0
03801C00E1C0
C39C1C01E1C0
73B81C01C1C0
3FF03801C1C0
1FC03801C1C0
00003801C1C0
00007001C1C0
00007001C1C0
00007001C1C0
0000F001C1D0
0000E001F1F8
0000E000FFF0
0001E0007FE0
0001C0001FC0
0001C00001C0
0003C00001C0
0003800001C0
0003800001C0
0003800001C0
0007000001C0
0007000001C0
0007000001C0
ENDCHAR
STARTCHAR 00BD
ENCODING 189
SWIDTH 666 0
DWIDTH 56 0
BBX 47 55 5 -1
BITMAP
038000038000
038000070000
038000070000
038000070000
0380000E0000
0380000E0000
0380000E0000
0380001C0000
0380001C0000
0380001C0000
0380003C0000
038000380000
038000380000
038000780000
038000700000
038000700000
038000700000
038000E00FC0
038000E03FF0
038000E07FF8
038001C0F87C
038001C0E01E
038001C0E00E
03800380000E
03800380000E
03800380000E
03800780000E
03800700000E
03800700000E
03800F00000E
03800E00001E
03800E00003C
03801E0007F8
03801C001FF0
C39C1C003FC0
73B81C007800
3FF03800F000
1FC03800E000
00003800E000
00007000E000
00007000E000
00007000E000
0000F000E000
0000E000E000
0000E000E000
0001E000E000
0001C000E000
0001C000E000
0003C000E000
00038000E000
00038000F008
00038000F83C
000700007FF8
000700003FF0
000700000FC0
ENDCHAR
STARTCHAR 00BE
ENCODING 190
SWIDTH 666 0
DWIDTH 56 0
BBX 46 55 5 1
BITMAP
0FC000038000
3FF000038000
7FF800038000
F87C00070000
E01E00070000
E00E00070000
E00E000E0000
000E000E0000
000E000E0000
000E001E0000
000E001C0000
000E001C0000
000E003C0000
000E00380000
001C00380000
007800780000
01E000700000
01C000700E00
01F000700E00
007800E00E00
001E00E00E00
000E00E01E00
000E01C01C00
000E01C01C00
000E01C01C00
000E03C03C00
000E03803800
000E038038E0
000E078038E0
000E070038E0
000E070070E0
000E0F0070E0
E00E0E0070E0
E01E0E0070E0
F87C0E00F0E0
7FF81C00E0E0
3FF01C00E0E0
0FC01C00E0E0
00003800E0E0
00003800E0E0
00003800E0E0
00007000E0E0
00007000E0E8
00007000F8FC
0000F0007FF8
0000E0003FF0
0000E0000FE0
0001E00000E0
0001C00000E0
0001C00000E0
0001C00000E0
0003800000E0
0003800000E0
0003800000E0
0007000000E0
ENDCHAR
STARTCHAR 00BF
ENCODING 191
SWIDTH 345 0
DWIDTH 29 0
BBX 20 54 5 -8
BITMAP
00E000
00E000
00E000
00E000
00E000
00E000
000000
000000
000000
000000
000000
000000
000000
000000
00E000
00E000
00E000
00E000
00E000
00E000
00E000
00E000
00E000
00E000
00E000
00E000
00E000
00E000
00E000
07E000
0FE000
3E0000
780000
F00000
E00000
E00000
E00000
E00000
E00000
E00000
E00000
E00000
E00000
E00000
E00000
E00000
E00000
E00000
F000F0
F801E0
7E0FC0
3FFF80
0FFE00
03F800
ENDCHAR
STARTCHAR 00C0
ENCODING 192
SWIDTH 345 0
DWIDTH 29 0
BBX 20 67 5 0
BITMAP
0F0000
0F0000
078000
03C000
01E000
00F000
007800
003C00
001E00
000000
000000
000000
01F000
0FFE00
1FFF00
3E0F80
7803C0
F001E0
E000F0
E00070
E00070
E00070
E00070
E00070
E00070
E00070
E00070
E00070
E00070
E00070
E00070
E00070
E00070
E00070
E00070
FFFFF0
FFFFF0
FFFFF0
E00070
E00070
E00070
E00070
E00070
E00070
E00070
E00070
E00070
E00070
E00070
E00070
E00070
E00070
E00070
E00070
E00070
E00070
E00070
E00070
E00070
E00070
E00070
E00070
E00070
E00070
E00070
E00070
E00070
ENDCHAR
STARTCHAR 00C1
ENCODING 193
SWIDTH 345 0
DWIDTH 29 0
BBX 20 67 5 0
BITMAP
000E00
001E00
003C00
007800
00F000
01E000
03C000
078000
0F8000
000000
000000
000000
01F000
0FFE00
1FFF00
3E0F80
7803C0
F001E0
E000F0
E00070
E00070
E00070
E00070
E00070
E00070
E00070
E00070
E00070
E00070
E00070
E00070
E00070
E00070
E00070
E00070
FFFFF0
FFFFF0
FFFFF0
E00070
E00070
E00070
E00070
E00070
E00070
E00070
E00070
E00070
E00070
E00070
E00070
E00070
E00070
E00070
E00070
E00070
E00070
E00070
E00070
E00070
E00070
E00070
E00070
E00070
E00070
E00070
E00070
E00070
ENDCHAR
STARTCHAR 00C2
ENCODING 194
SWIDTH 345 0
DWIDTH 29 0
BBX 20 67 5 0
BITMAP
00E000
01F000
01F000
03B800
071C00
071C00
0E0E00
1C0700
1C0700
000000
000000
000000
01F000
0FFE00
1FFF00
3E0F80
7803C0
F000E0
E00070
C00070
C00070
C00070
C00070
C00070
C00070
C00070
C00070
C00070
E00070
E00070
E00070
E00070
E00070
E00070
E00070
FFFFF0
FFFFF0
FFFFF0
E00070
E00070
E00070
E00070
E00070
E00070
E00070
E00070
E00070
E00070
E00070
E00070
E00070
E00070
E00070
E00070
E00070
E00070
E00070
E00070
E00070
E00070
E00070
E00070
E00070
E00070
E00070
E00070
E00070
ENDCHAR
STARTCHAR 00C3
ENCODING 195
SWIDTH 345 0
DWIDTH 29 0
BBX 20 64 5 0
BITMAP
0F8080
3FF1E0
FFFFC0
707F80
001E00
000000
000000
000000
000000
01F000
0FFE00
1FFF00
3E0F80
7803C0
F001E0
E000F0
E00070
E00070
E00070
E00070
E00070
E00070
E00070
E00070
E00070
E00070
E00070
E00070
E00070
E00070
E00070
E00070
FFFFF0
FFFFF0
FFFFF0
E00070
E00070
E00070
E00070
E00070
E00070
E00070
E00070
E00070
E00070
E00070
E00070
E00070
E00070
E00070
E00070
E00070
E00070
E00070
E00070
E00070
E00070
E00070
E00070
E00070
E00070
E00070
E00070
E00070
ENDCHAR
STARTCHAR 00C4
ENCODING 196
SWIDTH 345 0
DWIDTH 29 0
BBX 20 64 5 0
BITMAP
0E0700
0E0700
0E0700
0E0700
0E0700
0E0700
000000
000000
000000
01F000
0FFE00
1FFF00
3E0F80
7803C0
F001E0
E000F0
E00070
E00070
E00070
E00070
E00070
E00070
E00070
E00070
E00070
E00070
E00070
E00070
E00070
E00070
E00070
E00070
FFFFF0
FFFFF0
FFFFF0
E00070
E00070
E00070
E00070
E00070
E00070
E00070
E00070
E00070
E00070
E00070
E00070
E00070
E00070
E00070
E00070
E00070
E00070
E00070
E00070
E00070
E00070
E00070
E00070
E00070
E00070
E00070
E00070
E00070
ENDCHAR
STARTCHAR 00C5
ENCODING 197
SWIDTH 345 0
DWIDTH 29 0
BBX 20 67 5 0
BITMAP
01E000
03F800
07FC00
0F1E00
0E1E00
1C0F00
1C0780
1C0780
1C0780
1C0780
3C0780
1E0F00
0FFE00
0FFE00
1FFF00
3FFF80
7E0FC0
F803E0
F001F0
E00070
E00070
E00070
E00070
E00070
E00070
E00070
E00070
E00070
E00070
E00070
E00070
E00070
E00070
E00070
E00070
FFFFF0
FFFFF0
FFFFF0
E00070
E00070
E00070
E00070
E00070
E00070
E00070
E00070
E00070
E00070
E00070
E00070
E00070
E00070
E00070
E00070
E00070
E00070
E00070
E00070
E00070
E00070
E00070
E00070
E00070
E00070
E00070
E00070
E00070
ENDCHAR
STARTCHAR 00C6
ENCODING 198
SWIDTH 547 0
DWIDTH 46 0
BBX 37 55 5 0
BITMAP
01F800FC00
0FFE07FF00
1FFF0FFF80
3E0FDF07C0
7803FC01E0
F001F800F0
E000F00070
E000700000
E000700000
E000700000
E000700000
E000700000
E000700000
E000700000
E000700000
E000700000
E000700000
E000700000
E000700000
E000700000
E000700000
E000700000
E000700000
FFFFFFFE00
FFFFFFFE00
FFFFFFFE00
E000700000
E000700000
E000700000
E000700000
E000700000
E000700000
E000700000
E000700000
E000700000
E000700000
E000700000
E000700000
E000700000
E000700000
E000700000
E000700000
E000700000
E000700000
E000700000
E000700000
E000700000
E000700000
E000700000
E000780078
E0003C01F0
E0001F03E0
E0000FFF80
E00007FF00
E00000FC00
ENDCHAR
STARTCHAR 00C7
ENCODING 199
SWIDTH 345 0
DWIDTH 29 0
BBX 19 70 5 -15
BITMAP
01F000
0FFE00
1FFF00
3E0F80
7803C0
F001E0
E000E0
E00000
E00000
E00000
E00000
E00000
E00000
E00000
E00000
E00000
E00000
E00000
E00000
E00000
E00000
E00000
E00000
E00000
E00000
E00000
E00000
E00000
E00000
E00000
E00000
E00000
E00000
E00000
E00000
E00000
E00000
E00000
E00000
E00000
E00000
E00000
E00000
E00000
E00000
E00000
E00000
E00000
E00000
F000E0
7803E0
3E0FC0
1FFF00
0FFE00
03F800
01C000
01F000
01F800
007E00
001E00
000F00
000780
000380
000780
000F80
001F00
007E00
01FC00
01F000
01C000
ENDCHAR
STARTCHAR 00C8
ENCODING 200
SWIDTH 345 0
DWIDTH 29 0
BBX 19 67 5 0
BITMAP
0F0000
0F0000
078000
03C000
01E000
00F000
007800
003C00
001E00
000000
000000
000000
01F000
0FFE00
1FFF00
3E0F80
7803C0
F001E0
E000E0
E00000
E00000
E00000
E00000
E00000
E00000
E00000
E00000
E00000
E00000
E00000
E00000
E00000
E00000
E00000
E00000
FFFC00
FFFC00
FFFC00
E00000
E00000
E00000
E00000
E00000
E00000
E00000
E00000
E00000
E00000
E00000
E00000
E00000
E00000
E00000
E00000
E00000
E00000
E00000
E00000
E00000
E00000
E00040
F000E0
7803C0
3E0F80
1FFF00
0FFE00
03F800
ENDCHAR
STARTCHAR 00C9
ENCODING 201
SWIDTH 345 0
DWIDTH 29 0
BBX 19 67 5 0
BITMAP
000E00
001E00
003C00
007800
00F000
01E000
03C000
078000
0F8000
000000
000000
000000
01F000
0FFE00
1FFF00
3E0F80
7803C0
F001E0
E000E0
E00000
E00000
E00000
E00000
E00000
E00000
E00000
E00000
E00000
E00000
E00000
E00000
E00000
E00000
E00000
E00000
FFFC00
FFFC00
FFFC00
E00000
E00000
E00000
E00000
E00000
E00000
E00000
E00000
E00000
E00000
E00000
E00000
E00000
E00000
E00000
E00000
E00000
E00000
E00000
E00000
E00000
E00000
E00040
F000E0
7803C0
3E0F80
1FFF00
0FFE00
03F800
ENDCHAR
STARTCHAR 00CA
ENCODING 202
SWIDTH 345 0
DWIDTH 29 0
BBX 19 67 5 0
BITMAP
00E000
01F000
01F800
03B800
071C00
071E00
0E0E00
1C0700
180700
000000
000000
000000
01F000
0FFE00
1FFF00
3E0F80
7803C0
F001E0
E000E0
C00000
C00000
C00000
C00000
C00000
C00000
C00000
C00000
C00000
E00000
E00000
E00000
E00000
E00000
E00000
E00000
FFFC00
FFFC00
FFFC00
E00000
E00000
E00000
E00000
E00000
E00000
E00000
E00000
E00000
E00000
E00000
E00000
E00000
E00000
E00000
E00000
E00000
C00000
C00000
C00000
C00000
C00000
E00040
F000E0
7803C0
3E0F80
1FFF00
0FFE00
03F800
ENDCHAR
STARTCHAR 00CB
ENCODING 203
SWIDTH 345 0
DWIDTH 29 0
BBX 19 64 5 0
BITMAP
0E0700
0E0700
0E0700
0E0700
0E0700
0E0700
000000
000000
000000
01F000
0FFE00
1FFF00
3E0F80
7803C0
F001E0
E000E0
E00000
E00000
E00000
E00000
E00000
E00000
E00000
E00000
E00000
E00000
E00000
E00000
E00000
E00000
E00000
E00000
FFFC00
FFFC00
FFFC00
E00000
E00000
E00000
E00000
E00000
E00000
E00000
E00000
E00000
E00000
E00000
E00000
E00000
E00000
E00000
E00000
E00000
E00000
E00000
E00000
E00000
E00000
E00040
F000E0
7803C0
3E0F80
1FFF00
0FFE00
03F800
ENDCHAR
STARTCHAR 00CC
ENCODING 204
SWIDTH 238 0
DWIDTH 20 0
BBX 11 67 4 0
BITMAP
F000
7800
3C00
1E00
1F00
0F00
0780
03C0
01E0
0000
0000
0000
0700
0700
0700
0700
0700
0700
0700
0700
0700
0700
0700
0700
0700
0700
0700
0700
0700
0700
0700
0700
0700
0700
0700
0700
0700
0700
0700
0700
0700
0700
0700
0700
0700
0700
0700
0700
0700
0700
0700
0700
0700
0700
0700
0700
0700
0700
0700
0700
0700
0700
0700
0700
0700
0700
0700
ENDCHAR
STARTCHAR 00CD
ENCODING 205
SWIDTH 238 0
DWIDTH 20 0
BBX 11 67 5 0
BITMAP
01E0
03C0
0780
0F00
1F00
3E00
3C00
7800
F000
0000
0000
0000
0E00
0E00
0E00
0E00
0E00
0E00
0E00
0E00
0E00
0E00
0E00
0E00
0E00
0E00
0E00
0E00
0E00
0E00
0E00
0E00
0E00
0E00
0E00
0E00
0E00
0E00
0E00
0E00
0E00
0E00
0E00
0E00
0E00
0E00
0E00
0E00
0E00
0E00
0E00
0E00
0E00
0E00
0E00
0E00
0E00
0E00
0E00
0E00
0E00
0E00
0E00
0E00
0E00
0E00
0E00
ENDCHAR
STARTCHAR 00CE
ENCODING 206
SWIDTH 273 0
DWIDTH 23 0
BBX 14 67 5 0
BITMAP
0780
0F80
0FC0
1DE0
38E0
3870
7070
E038
E01C
0000
0000
0000
0380
0380
0380
0380
0380
0380
0380
0380
0380
0380
0380
0380
0380
0380
0380
0380
0380
0380
0380
0380
0380
0380
0380
0380
0380
0380
0380
0380
0380
0380
0380
0380
0380
0380
0380
0380
0380
0380
0380
0380
0380
0380
0380
0380
0380
0380
0380
0380
0380
0380
0380
0380
0380
0380
0380
ENDCHAR
STARTCHAR 00CF
ENCODING 207
SWIDTH 238 0
DWIDTH 20 0
BBX 12 64 5 0
BITMAP
E070
E070
E070
E070
E070
E070
0000
0000
0000
0E00
0E00
0E00
0E00
0E00
0E00
0E00
0E00
0E00
0E00
0E00
0E00
0E00
0E00
0E00
0E00
0E00
0E00
0E00
0E00
0E00
0E00
0E00
0E00
0E00
0E00
0E00
0E00
0E00
0E00
0E00
0E00
0E00
0E00
0E00
0E00
0E00
0E00
0E00
0E00
0E00
0E00
0E00
0E00
0E00
0E00
0E00
0E00
0E00
0E00
0E00
0E00
0E00
0E00
0E00
ENDCHAR
STARTCHAR 00D0
ENCODING 208
SWIDTH 380 0
DWIDTH 32 0
BBX 23 55 5 0
BITMAP
1FFF00
1FFFC0
1FFFE0
1C01F0
1C0078
1C003C
1C001E
1C000E
1C000E
1C000E
1C000E
1C000E
1C000E
1C000E
1C000E
1C000E
1C000E
1C000E
1C000E
1C000E
1C000E
1C000E
1C000E
FFFC0E
FFFC0E
FFFC0E
1C000E
1C000E
1C000E
1C000E
1C000E
1C000E
1C000E
1C000E
1C000E
1C000E
1C000E
1C000E
1C000E
1C000E
1C000E
1C000E
1C000E
1C000E
1C000E
1C000E
1C000E
1C000E
1C001E
1C003C
1C007C
1C01F0
1FFFE0
1FFFC0
1FFF00
ENDCHAR
STARTCHAR 00D1
ENCODING 209
SWIDTH 345 0
DWIDTH 29 0
BBX 20 64 5 0
BITMAP
0F8080
3FF1E0
FFFFC0
707F80
001E00
000000
000000
000000
000000
01F000
0FFE00
1FFF00
3E0F80
7803C0
F001E0
E000F0
E00070
E00070
E00070
E00070
E00070
E00070
E00070
E00070
E00070
E00070
E00070
E00070
E00070
E00070
E00070
E00070
E00070
E00070
E00070
E00070
E00070
E00070
E00070
E00070
E00070
E00070
E00070
E00070
E00070
E00070
E00070
E00070
E00070
E00070
E00070
E00070
E00070
E00070
E00070
E00070
E00070
E00070
E00070
E00070
E00070
E00070
E00070
E00070
ENDCHAR
STARTCHAR 00D2
ENCODING 210
SWIDTH 345 0
DWIDTH 29 0
BBX 20 67 5 0
BITMAP
0F0000
0F0000
078000
03C000
01E000
00F000
007800
003C00
001E00
000000
000000
000000
01F000
0FFE00
1FFF00
3E0F80
7803C0
F001E0
E000F0
E00070
E00070
E00070
E00070
E00070
E00070
E00070
E00070
E00070
E00070
E00070
E00070
E00070
E00070
E00070
E00070
E00070
E00070
E00070
E00070
E00070
E00070
E00070
E00070
E00070
E00070
E00070
E00070
E00070
E00070
E00070
E00070
E00070
E00070
E00070
E00070
E00070
E00070
E00070
E00070
E00070
E000F0
F001E0
7803C0
3E0F80
1FFF00
0FFE00
03F800
ENDCHAR
STARTCHAR 00D3
ENCODING 211
SWIDTH 345 0
DWIDTH 29 0
BBX 20 67 5 0
BITMAP
000E00
001E00
003C00
007800
00F000
01E000
03C000
078000
0F8000
000000
000000
000000
01F000
0FFE00
1FFF00
3E0F80
7803C0
F001E0
E000F0
E00070
E00070
E00070
E00070
E00070
E00070
E00070
E00070
E00070
E00070
E00070
E00070
E00070
E00070
E00070
E00070
E00070
E00070
E00070
E00070
E00070
E00070
E00070
E00070
E00070
E00070
E00070
E00070
E00070
E00070
E00070
E00070
E00070
E00070
E00070
E00070
E00070
E00070
E00070
E00070
E00070
E000F0
F001E0
7803C0
3E0F80
1FFF00
0FFE00
03F800
ENDCHAR
STARTCHAR 00D4
ENCODING 212
SWIDTH 345 0
DWIDTH 29 0
BBX 20 67 5 0
BITMAP
00E000
01F000
01F000
03B800
071C00
071C00
0E0E00
1C0700
1C0700
000000
000000
000000
01F000
0FFE00
1FFF00
3E0F80
7803C0
F000E0
E00070
C00070
C00070
C00070
C00070
C00070
C00070
C00070
C00070
C00070
C00070
C00070
C00070
C00070
C00070
C00070
C00070
C00070
C00070
C00070
C00070
C00070
C00070
C00070
C00070
C00070
C00070
C00070
C00070
C00070
C00070
C00070
C00070
C00070
C00070
C00070
C00070
C00070
C00070
C00070
C00070
C00070
E000F0
F001E0
7803C0
3E0F80
1FFF00
0FFE00
03F800
ENDCHAR
STARTCHAR 00D5
ENCODING 213
SWIDTH 345 0
DWIDTH 29 0
BBX 20 64 5 0
BITMAP
0F8080
3FF1E0
FFFFC0
707F80
001E00
000000
000000
000000
000000
01F000
0FFE00
1FFF00
3E0F80
7803C0
F001E0
E000F0
E00070
E00070
E00070
E00070
E00070
E00070
E00070
E00070
E00070
E00070
E00070
E00070
E00070
E00070
E00070
E00070
E00070
E00070
E00070
E00070
E00070
E00070
E00070
E00070
E00070
E00070
E00070
E00070
E00070
E00070
E00070
E00070
E00070
E00070
E00070
E00070
E00070
E00070
E00070
E00070
E00070
E000F0
F001E0
7803C0
3E0F80
1FFF00
0FFE00
03F800
ENDCHAR
STARTCHAR 00D6
ENCODING 214
SWIDTH 345 0
DWIDTH 29 0
BBX 20 64 5 0
BITMAP
0E0700
0E0700
0E0700
0E0700
0E0700
0E0700
000000
000000
000000
01F000
0FFE00
1FFF00
3E0F80
7803C0
F001E0
E000F0
E00070
E00070
E00070
E00070
E00070
E00070
E00070
E00070
E00070
E00070
E00070
E00070
E00070
E00070
E00070
E00070
E00070
E00070
E00070
E00070
E00070
E00070
E00070
E00070
E00070
E00070
E00070
E00070
E00070
E00070
E00070
E00070
E00070
E00070
E00070
E00070
E00070
E00070
E00070
E00070
E00070
E000F0
F001E0
7803C0
3E0F80
1FFF00
0FFE00
03F800
ENDCHAR
STARTCHAR 00D7
ENCODING 215
SWIDTH 345 0
DWIDTH 29 0
BBX 20 23 5 11
BITMAP
4000C0
600180
300100
180200
0C0400
0E0400
070C00
039800
01F800
00F800
00F000
01F800
03FC00
07FE00
07EF00
0FCF80
1FC7C0
3F83E0
7F81F0
FF80E0
3F00C0
0F0000
020000
ENDCHAR
STARTCHAR 00D8
ENCODING 216
SWIDTH 345 0
DWIDTH 29 0
BBX 20 60 5 -2
BITMAP
0000F0
0000E0
03F0E0
0FFDE0
1FFFC0
3E0FC0
7803C0
F003E0
E003F0
C003F0
C007F0
C00770
C00770
C00770
C00E70
C00E70
C00E70
C01E70
C01C70
C01C70
C01C70
C03870
C03870
C03870
C07870
C07070
C07070
C07070
C0E070
C0E070
C0E070
C1E070
C1C070
C1C070
C1C070
C38070
C38070
C38070
C78070
C70070
C70070
C70070
CF0070
CE0070
CE0070
DE0070
DC0070
DC0070
DC0070
FC0070
F800F0
F801E0
7803E0
7E0FC0
7FFF00
7FFE00
F3F800
E00000
E00000
E00000
ENDCHAR
STARTCHAR 00D9
ENCODING 217
SWIDTH 345 0
DWIDTH 29 0
BBX 20 67 5 0
BITMAP
0F0000
0F0000
078000
03C000
01E000
00F000
007800
003C00
001E00
000000
000000
000000
E00070
E00070
E00070
E00070
E00070
E00070
E00070
E00070
E00070
E00070
E00070
E00070
E00070
E00070
E00070
E00070
E00070
E00070
E00070
E00070
E00070
E00070
E00070
E00070
E00070
E00070
E00070
E00070
E00070
E00070
E00070
E00070
E00070
E00070
E00070
E00070
E00070
E00070
E00070
E00070
E00070
E00070
E00070
E00070
E00070
E00070
E00070
E00070
E000F0
F001E0
7803C0
3E0F80
1FFF00
0FFE00
03F800
ENDCHAR
STARTCHAR 00DA
ENCODING 218
SWIDTH 345 0
DWIDTH 29 0
BBX 20 67 5 0
BITMAP
000E00
001E00
003C00
007800
00F000
01E000
03C000
078000
0F8000
000000
000000
000000
E00070
E00070
E00070
E00070
E00070
E00070
E00070
E00070
E00070
E00070
E00070
E00070
E00070
E00070
E00070
E00070
E00070
E00070
E00070
E00070
E00070
E00070
E00070
E00070
E00070
E00070
E00070
E00070
E00070
E00070
E00070
E00070
E00070
E00070
E00070
E00070
E00070
E00070
E00070
E00070
E00070
E00070
E00070
E00070
E00070
E00070
E00070
E00070
E000F0
F001E0
7803C0
3E0F80
1FFF00
0FFE00
03F800
ENDCHAR
STARTCHAR 00DB
ENCODING 219
SWIDTH 345 0
DWIDTH 29 0
BBX 20 67 5 0
BITMAP
00E000
01F000
01F000
03B800
071C00
071C00
0E0E00
1C0700
1C0700
000000
000000
000000
E00070
E00070
E00070
E00070
E00070
E00070
E00070
E00070
E00070
E00070
E00070
E00070
E00070
E00070
E00070
E00070
E00070
E00070
E00070
E00070
E00070
E00070
E00070
E00070
E00070
E00070
E00070
E00070
E00070
E00070
E00070
E00070
E00070
E00070
E00070
E00070
E00070
C00070
C00070
C00070
C00070
C00070
C00070
C00070
C00070
C00070
C00070
C00070
E000F0
F001E0
7803C0
3E0F80
1FFF00
0FFE00
03F800
ENDCHAR
STARTCHAR 00DC
ENCODING 220
SWIDTH 345 0
DWIDTH 29 0
BBX 20 64 5 0
BITMAP
0E0700
0E0700
0E0700
0E0700
0E0700
0E0700
000000
000000
000000
E00070
E00070
E00070
E00070
E00070
E00070
E00070
E00070
E00070
E00070
E00070
E00070
E00070
E00070
E00070
E00070
E00070
E00070
E00070
E00070
E00070
E00070
E00070
E00070
E00070
E00070
E00070
E00070
E00070
E00070
E00070
E00070
E00070
E00070
E00070
E00070
E00070
E00070
E00070
E00070
E00070
E00070
E00070
E00070
E00070
E00070
E00070
E00070
E000F0
F001E0
7803C0
3E0F80
1FFF00
0FFE00
03F800
ENDCHAR
STARTCHAR 00DD
ENCODING 221
SWIDTH 345 0
DWIDTH 29 0
BBX 20 67 5 0
BITMAP
000E00
001E00
003C00
007800
00F000
01E000
03C000
078000
0F8000
000000
000000
000000
E00070
E00070
E00070
E00070
E00070
E00070
E00070
E00070
E00070
E00070
E00070
E00070
E00070
E00070
E00070
E00070
E00070
E00070
E00070
E00070
E000F0
F001E0
7C07C0
3FFF80
0FFF00
03FC00
007000
007000
007000
007000
007000
007000
007000
007000
007000
007000
007000
007000
007000
007000
007000
007000
007000
007000
007000
007000
007000
007000
007000
007000
007000
007000
007000
007000
007000
ENDCHAR
STARTCHAR 00DE
ENCODING 222
SWIDTH 345 0
DWIDTH 29 0
BBX 20 55 5 0
BITMAP
E00000
E00000
E00000
E00000
E00000
E00000
E00000
E00000
E00000
E00000
E00000
E00000
E00000
E00000
FFF800
FFFE00
FFFF00
E00F80
E003C0
E001E0
E000F0
E00070
E00070
E00070
E00070
E00070
E00070
E00070
E00070
E00070
E00070
E00070
E00070
E00070
E00070
E00070
E000F0
E001E0
E003C0
E00F80
FFFF00
FFFE00
FFF800
E00000
E00000
E00000
E00000
E00000
E00000
E00000
E00000
E00000
E00000
E00000
E00000
ENDCHAR
STARTCHAR 00DF
ENCODING 223
SWIDTH 369 0
DWIDTH 31 0
BBX 22 61 5 -7
BITMAP
03F800
0FFE00
1FFF00
7E0FC0
F803E0
F001F0
E000F0
E00070
E00070
E00070
E00070
E00070
E00070
E00070
E00070
E00070
E000F0
E001E0
E003C0
E00FC0
E0FF00
E1FE00
E1F800
E1C000
E1C000
E1C000
E1FE00
E0FF80
E07FE0
E003F0
E000F8
E00078
E0003C
E0001C
E0001C
E0001C
E0001C
E0001C
E0001C
E0001C
E0001C
E0001C
E0001C
E0001C
E0001C
E0001C
E0001C
E0001C
E0001C
E0001C
E0001C
E0001C
E0001C
E0001C
00003C
000078
0000F0
0003E0
001FC0
001F80
001C00
ENDCHAR
STARTCHAR 00E0
ENCODING 224
SWIDTH 345 0
DWIDTH 29 0
BBX 20 50 5 0
BITMAP
0F0000
0F0000
078000
03C000
01E000
00F000
007800
003C00
001E00
000000
000000
000000
000000
03F800
0FFE00
1FFF00
7E0FC0
F803E0
E001F0
0000F0
000070
000070
000070
000070
000070
000070
000070
03F070
0FFE70
1FFF70
3E0FF0
7803F0
F001F0
E000F0
E00070
E00070
E00070
E00070
E00070
E00070
E00070
E00070
E00070
E000F0
F001F0
7803F0
7E0FF0
1FFF70
0FFE70
03F070
ENDCHAR
STARTCHAR 00E1
ENCODING 225
SWIDTH 345 0
DWIDTH 29 0
BBX 20 50 5 0
BITMAP
000E00
001E00
003C00
007800
00F000
01E000
03C000
078000
0F0000
000000
000000
000000
000000
03F800
0FFE00
1FFF00
7E0FC0
F803E0
E001F0
0000F0
000070
000070
000070
000070
000070
000070
000070
03F070
0FFE70
1FFF70
3E0FF0
7803F0
F001F0
E000F0
E00070
E00070
E00070
E00070
E00070
E00070
E00070
E00070
E00070
E000F0
F001F0
7803F0
7E0FF0
1FFF70
0FFE70
03F070
ENDCHAR
STARTCHAR 00E2
ENCODING 226
SWIDTH 345 0
DWIDTH 29 0
BBX 20 50 5 0
BITMAP
00E000
01F000
03F800
03B800
071C00
070C00
0E0E00
1C0700
180300
000000
000000
000000
000000
03F800
0FFE00
1FFF00
7E0FC0
F803E0
E000F0
000070
000070
000070
000070
000070
000070
000070
000070
03F070
0FFE70
1FFF70
3E0FF0
7803F0
F000F0
E00070
C00070
C00070
C00070
C00070
C00070
C00070
C00070
C00070
C00070
E00070
F000F0
7803F0
7E07F0
1FFF70
0FFE70
03F070
ENDCHAR
STARTCHAR 00E3
ENCODING 227
SWIDTH 345 0
DWIDTH 29 0
BBX 20 47 5 1
BITMAP
0F81C0
7FFFE0
FFFFC0
307E00
000000
000000
000000
000000
000000
000000
03F800
0FFE00
1FFF00
7E0FC0
F803E0
E001F0
0000F0
000070
000070
000070
000070
000070
000070
000070
03F070
0FFE70
1FFF70
3E0FF0
7803F0
F001F0
E000F0
E00070
E00070
E00070
E00070
E00070
E00070
E00070
E00070
E00070
E000F0
F001F0
7803F0
7E0FF0
1FFF70
0FFE70
03F070
ENDCHAR
STARTCHAR 00E4
ENCODING 228
SWIDTH 345 0
DWIDTH 29 0
BBX 20 48 5 0
BITMAP
0E0700
0E0700
0E0700
0E0700
0E0700
0E0700
000000
000000
000000
000000
000000
03F800
0FFE00
1FFF00
7E0FC0
F803E0
E001F0
0000F0
000070
000070
000070
000070
000070
000070
000070
03F070
0FFE70
1FFF70
3E0FF0
7803F0
F001F0
E000F0
E00070
E00070
E00070
E00070
E00070
E00070
E00070
E00070
E00070
E000F0
F001F0
7803F0
7E0FF0
1FFF70
0FFE70
03F070
ENDCHAR
STARTCHAR 00E5
ENCODING 229
SWIDTH 345 0
DWIDTH 29 0
BBX 20 50 5 0
BITMAP
01F000
07FC00
0F1E00
1E0700
1C0780
1C0380
1C0780
1E0F00
0F1E00
07FC00
01F000
000000
000000
03F800
0FFE00
1FFF00
7E0FC0
F803E0
E001F0
0000F0
000070
000070
000070
000070
000070
000070
000070
03F070
0FFE70
1FFF70
3E0FF0
7803F0
F001F0
E000F0
E00070
E00070
E00070
E00070
E00070
E00070
E00070
E00070
E00070
E000F0
F001F0
7803F0
7E0FF0
1FFF70
0FFE70
03F070
ENDCHAR
STARTCHAR 00E6
ENCODING 230
SWIDTH 547 0
DWIDTH 46 0
BBX 37 37 5 0
BITMAP
03F801FC00
0FFE07FF00
1FFF0FFF80
7E0FFF07E0
F803FC01F0
E001F800F8
0000F00078
0000700038
0000700038
0000700038
0000700038
0000700038
0000700038
0000700038
03F0700038
0FFE700038
1FFF700078
3E0FF800F0
7803FC01E0
F001FF07C0
E000FFFF80
E00073FF00
E00070FC00
E000700000
E000700000
E000700000
E000700000
E000700000
E000700000
E000700000
E000F00000
F001F80070
7803FC01E0
3E0F9F07C0
1FFF0FFF80
0FFE07FF00
03F000FC00
ENDCHAR
STARTCHAR 00E7
ENCODING 231
SWIDTH 345 0
DWIDTH 29 0
BBX 20 52 5 -15
BITMAP
03F800
0FFE00
1FFF00
7E0FC0
F803E0
F000F0
E00000
E00000
E00000
E00000
E00000
E00000
E00000
E00000
E00000
E00000
E00000
E00000
E00000
E00000
E00000
E00000
E00000
E00000
E00000
E00000
E00000
E00000
E00000
E00000
E00000
F000E0
7803E0
3E0FC0
1FFF00
0FFE00
03F800
01C000
01F000
01F800
007E00
001E00
000F00
000780
000380
000780
000F80
001F00
007E00
01FC00
01F000
01C000
ENDCHAR
STARTCHAR 00E8
ENCODING 232
SWIDTH 345 0
DWIDTH 29 0
BBX 20 50 5 0
BITMAP
0F0000
0F0000
078000
03C000
01E000
00F000
007800
003C00
001E00
000000
000000
000000
000000
03F800
0FFE00
1FFF00
7E0FC0
F803E0
F001F0
E000F0
E00070
E00070
E00070
E00070
E00070
E00070
E00070
E00070
E00070
E000F0
F001E0
F803C0
FF0F80
FFFF00
E7FE00
E1F800
E00000
E00000
E00000
E00000
E00000
E00000
E00000
E00080
F001E0
7803E0
3E0FC0
1FFF00
0FFE00
03F800
ENDCHAR
STARTCHAR 00E9
ENCODING 233
SWIDTH 345 0
DWIDTH 29 0
BBX 20 50 5 0
BITMAP
000E00
001E00
003C00
007800
00F000
01E000
03C000
078000
0F0000
000000
000000
000000
000000
03F800
0FFE00
1FFF00
7E0FC0
F803E0
F001F0
E000F0
E00070
E00070
E00070
E00070
E00070
E00070
E00070
E00070
E00070
E000F0
F001E0
F803C0
FF0F80
FFFF00
E7FE00
E1F800
E00000
E00000
E00000
E00000
E00000
E00000
E00000
E00080
F001E0
7803E0
3E0FC0
1FFF00
0FFE00
03F800
ENDCHAR
STARTCHAR 00EA
ENCODING 234
SWIDTH 345 0
DWIDTH 29 0
BBX 20 50 5 0
BITMAP
00E000
01F000
03F800
03B800
071C00
070C00
0E0E00
1C0700
180300
000000
000000
000000
000000
03F800
0FFE00
1FFF00
7E0FC0
F803E0
F000F0
E00070
C00070
C00070
C00070
C00070
C00070
C00070
C00070
C00070
C00070
E000F0
F001E0
F803C0
FF0F80
FFFF00
E7FE00
E1F800
E00000
E00000
E00000
E00000
E00000
C00000
C00000
E00080
F001E0
7803E0
3E0FC0
1FFF00
0FFE00
03F800
ENDCHAR
STARTCHAR 00EB
ENCODING 235
SWIDTH 345 0
DWIDTH 29 0
BBX 20 48 5 0
BITMAP
0E0700
0E0700
0E0700
0E0700
0E0700
0E0700
000000
000000
000000
000000
000000
03F800
0FFE00
1FFF00
7E0FC0
F803E0
F001F0
E000F0
E00070
E00070
E00070
E00070
E00070
E00070
E00070
E00070
E00070
E000F0
F001E0
F803C0
FF0F80
FFFF00
E7FE00
E1F800
E00000
E00000
E00000
E00000
E00000
E00000
E00000
E00080
F001E0
7803E0
3E0FC0
1FFF00
0FFE00
03F800
ENDCHAR
STARTCHAR 00EC
ENCODING 236
SWIDTH 238 0
DWIDTH 20 0
BBX 11 50 4 0
BITMAP
F000
7800
3C00
1E00
0F00
0F80
0780
03C0
01E0
0000
0000
0000
0000
0700
0700
0700
0700
0700
0700
0700
0700
0700
0700
0700
0700
0700
0700
0700
0700
0700
0700
0700
0700
0700
0700
0700
0700
0700
0700
0700
0700
0700
0700
0700
0700
0700
0700
0700
0700
0700
ENDCHAR
STARTCHAR 00ED
ENCODING 237
SWIDTH 238 0
DWIDTH 20 0
BBX 11 50 5 0
BITMAP
01E0
03C0
0780
0F00
1E00
3E00
7C00
7800
F000
0000
0000
0000
0000
0E00
0E00
0E00
0E00
0E00
0E00
0E00
0E00
0E00
0E00
0E00
0E00
0E00
0E00
0E00
0E00
0E00
0E00
0E00
0E00
0E00
0E00
0E00
0E00
0E00
0E00
0E00
0E00
0E00
0E00
0E00
0E00
0E00
0E00
0E00
0E00
0E00
ENDCHAR
STARTCHAR 00EE
ENCODING 238
SWIDTH 273 0
DWIDTH 23 0
BBX 14 50 5 0
BITMAP
0780
0F80
0FC0
1DE0
38E0
3870
7070
E038
C01C
0000
0000
0000
0000
0380
0380
0380
0380
0380
0380
0380
0380
0380
0380
0380
0380
0380
0380
0380
0380
0380
0380
0380
0380
0380
0380
0380
0380
0380
0380
0380
0380
0380
0380
0380
0380
0380
0380
0380
0380
0380
ENDCHAR
STARTCHAR 00EF
ENCODING 239
SWIDTH 238 0
DWIDTH 20 0
BBX 12 48 5 0
BITMAP
E070
E070
E070
E070
E070
E070
0000
0000
0000
0000
0000
0E00
0E00
0E00
0E00
0E00
0E00
0E00
0E00
0E00
0E00
0E00
0E00
0E00
0E00
0E00
0E00
0E00
0E00
0E00
0E00
0E00
0E00
0E00
0E00
0E00
0E00
0E00
0E00
0E00
0E00
0E00
0E00
0E00
0E00
0E00
0E00
0E00
ENDCHAR
STARTCHAR 00F0
ENCODING 240
SWIDTH 380 0
DWIDTH 32 0
BBX 23 55 5 0
BITMAP
003000
003E00
003F00
000F82
0003CE
0001FE
0000FC
0003F0
000FF0
003FF0
00FE70
03F870
03E070
038070
020070
000070
000070
000070
03F070
0FFE70
1FFF70
7C07F0
F001F0
E000F0
E00070
E00070
E00070
E00070
E00070
E00070
E00070
E00070
E00070
E00070
E00070
E00070
E00070
E00070
E00070
E00070
E00070
E00070
E00070
E00070
E00070
E00070
E00070
E00070
E000F0
F001E0
7803C0
7E0F80
1FFF00
0FFE00
03F000
ENDCHAR
STARTCHAR 00F1
ENCODING 241
SWIDTH 345 0
DWIDTH 29 0
BBX 20 47 5 1
BITMAP
0F81C0
7FFFE0
FFFFC0
307E00
000000
000000
000000
000000
000000
000000
E1F800
EFFE00
FFFF00
FE0FC0
F803E0
F001F0
E000F0
E00070
E00070
E00070
E00070
E00070
E00070
E00070
E00070
E00070
E00070
E00070
E00070
E00070
E00070
E00070
E00070
E00070
E00070
E00070
E00070
E00070
E00070
E00070
E00070
E00070
E00070
E00070
E00070
E00070
E00070
ENDCHAR
STARTCHAR 00F2
ENCODING 242
SWIDTH 345 0
DWIDTH 29 0
BBX 20 50 5 0
BITMAP
0F0000
0F0000
078000
03C000
01E000
00F000
007800
003C00
001E00
000000
000000
000000
000000
03F800
0FFE00
1FFF00
7E0FC0
F803E0
F001F0
E000F0
E00070
E00070
E00070
E00070
E00070
E00070
E00070
E00070
E00070
E00070
E00070
E00070
E00070
E00070
E00070
E00070
E00070
E00070
E00070
E00070
E00070
E00070
E00070
E000F0
F001E0
7803E0
3E0FC0
1FFF00
0FFE00
03F800
ENDCHAR
STARTCHAR 00F3
ENCODING 243
SWIDTH 345 0
DWIDTH 29 0
BBX 20 50 5 0
BITMAP
000E00
001E00
003C00
007800
00F000
01E000
03C000
078000
0F0000
000000
000000
000000
000000
03F800
0FFE00
1FFF00
7E0FC0
F803E0
F001F0
E000F0
E00070
E00070
E00070
E00070
E00070
E00070
E00070
E00070
E00070
E00070
E00070
E00070
E00070
E00070
E00070
E00070
E00070
E00070
E00070
E00070
E00070
E00070
E00070
E000F0
F001E0
7803E0
3E0FC0
1FFF00
0FFE00
03F800
ENDCHAR
STARTCHAR 00F4
ENCODING 244
SWIDTH 345 0
DWIDTH 29 0
BBX 20 50 5 0
BITMAP
00E000
01F000
03F800
03B800
071C00
070C00
0E0E00
1C0700
180300
000000
000000
000000
000000
03F800
0FFE00
1FFF00
7E0FC0
F803E0
F001F0
E00070
C00070
C00070
C00070
C00070
C00070
C00070
C00070
C00070
C00070
C00070
C00070
C00070
C00070
C00070
C00070
C00070
C00070
C00070
C00070
C00070
C00070
C00070
C00070
E00070
F000E0
7803E0
3E0FC0
1FFF00
0FFE00
03F800
ENDCHAR
STARTCHAR 00F5
ENCODING 245
SWIDTH 345 0
DWIDTH 29 0
BBX 20 47 5 1
BITMAP
0F81C0
7FFFE0
FFFFC0
307E00
000000
000000
000000
000000
000000
000000
03F800
0FFE00
1FFF00
7E0FC0
F803E0
F001F0
E000F0
E00070
E00070
E00070
E00070
E00070
E00070
E00070
E00070
E00070
E00070
E00070
E00070
E00070
E00070
E00070
E00070
E00070
E00070
E00070
E00070
E00070
E00070
E00070
E000F0
F001E0
7803E0
3E0FC0
1FFF00
0FFE00
03F800
ENDCHAR
STARTCHAR 00F6
ENCODING 246
SWIDTH 345 0
DWIDTH 29 0
BBX 20 48 5 0
BITMAP
0E0700
0E0700
0E0700
0E0700
0E0700
0E0700
000000
000000
000000
000000
000000
03F800
0FFE00
1FFF00
7E0FC0
F803E0
F001F0
E000F0
E00070
E00070
E00070
E00070
E00070
E00070
E00070
E00070
E00070
E00070
E00070
E00070
E00070
E00070
E00070
E00070
E00070
E00070
E00070
E00070
E00070
E00070
E00070
E000F0
F001E0
7803E0
3E0FC0
1FFF00
0FFE00
03F800
ENDCHAR
STARTCHAR 00F7
ENCODING 247
SWIDTH 416 0
DWIDTH 35 0
BBX 27 24 5 12
BITMAP
000E0000
000E0000
000E0000
000E0000
000E0000
000E0000
00000000
00000000
00000000
00000000
FFFFFFE0
FFFFFFE0
FFFFFFE0
00000000
00000000
00000000
00000000
00000000
000E0000
000E0000
000E0000
000E0000
000E0000
000E0000
ENDCHAR
STARTCHAR 00F8
ENCODING 248
SWIDTH 345 0
DWIDTH 29 0
BBX 20 43 5 -3
BITMAP
0001C0
0001C0
000380
03FB80
0FFF80
1FFF80
7E07C0
F807E0
F00FF0
E00F70
E00F70
E01F70
E01E70
E01E70
E03E70
E03C70
E03C70
E07870
E07870
E07870
E0F070
E0F070
E0F070
E1E070
E1E070
E1C070
E3C070
E3C070
E38070
E78070
E78070
E70070
EF0070
EF00F0
EE01E0
7E03E0
3E0FC0
1FFF00
1FFE00
39F800
380000
380000
700000
ENDCHAR
STARTCHAR 00F9
ENCODING 249
SWIDTH 345 0
DWIDTH 29 0
BBX 20 50 5 0
BITMAP
0F0000
0F0000
078000
03C000
01E000
00F000
007800
003C00
001E00
000000
000000
000000
000000
E00070
E00070
E00070
E00070
E00070
E00070
E00070
E00070
E00070
E00070
E00070
E00070
E00070
E00070
E00070
E00070
E00070
E00070
E00070
E00070
E00070
E00070
E00070
E00070
E00070
E00070
E00070
E00070
E00070
E00070
E000F0
F001F0
7803F0
3E0FF0
1FFF70
0FFE70
03F070
ENDCHAR
STARTCHAR 00FA
ENCODING 250
SWIDTH 345 0
DWIDTH 29 0
BBX 20 50 5 0
BITMAP
000E00
001E00
003C00
007800
00F000
01E000
03C000
078000
0F0000
000000
000000
000000
000000
E00070
E00070
E00070
E00070
E00070
E00070
E00070
E00070
E00070
E00070
E00070
E00070
E00070
E00070
E00070
E00070
E00070
E00070
E00070
E00070
E00070
E00070
E00070
E00070
E00070
E00070
E00070
E00070
E00070
E00070
E000F0
F001F0
7803F0
3E0FF0
1FFF70
0FFE70
03F070
ENDCHAR
STARTCHAR 00FB
ENCODING 251
SWIDTH 345 0
DWIDTH 29 0
BBX 20 50 5 0
BITMAP
00E000
01F000
03F800
03B800
071C00
070C00
0E0E00
1C0700
180300
000000
000000
000000
000000
E00070
E00070
E00070
E00070
E00070
E00070
E00070
E00070
E00070
E00070
E00070
E00070
E00070
E00070
E00070
E00070
E00070
E00070
E00070
E00070
E00070
E00070
E00070
C00070
C00070
C00070
C00070
C00070
C00070
C00070
E00070
F000F0
7803F0
3E0FF0
1FFF70
0FFE70
03F070
ENDCHAR
STARTCHAR 00FC
ENCODING 252
SWIDTH 345 0
DWIDTH 29 0
BBX 20 48 5 0
BITMAP
0E0700
0E0700
0E0700
0E0700
0E0700
0E0700
000000
000000
000000
000000
000000
E00070
E00070
E00070
E00070
E00070
E00070
E00070
E00070
E00070
E00070
E00070
E00070
E00070
E00070
E00070
E00070
E00070
E00070
E00070
E00070
E00070
E00070
E00070
E00070
E00070
E00070
E00070
E00070
E00070
E00070
E000F0
F001F0
7803F0
3E0FF0
1FFF70
0FFE70
03F070
ENDCHAR
STARTCHAR 00FD
ENCODING 253
SWIDTH 345 0
DWIDTH 29 0
BBX 20 67 5 -17
BITMAP
000E00
001E00
003C00
007800
00F000
01E000
03C000
078000
0F0000
000000
000000
000000
000000
E00070
E00070
E00070
E00070
E00070
E00070
E00070
E00070
E00070
E00070
E00070
E00070
E00070
E00070
E00070
E00070
E00070
E00070
E00070
E00070
E00070
E00070
E00070
E00070
E00070
E00070
E00070
E00070
E00070
E00070
E000F0
F001F0
7803F0
3E0FF0
1FFF70
0FFE70
03F070
000070
000070
000070
000070
000070
000070
000070
000070
000070
000070
0000F0
0001E0
0003E0
000FC0
003F00
003E00
003800
ENDCHAR
STARTCHAR 00FE
ENCODING 254
SWIDTH 345 0
DWIDTH 29 0
BBX 20 72 5 -17
BITMAP
E00000
E00000
E00000
E00000
E00000
E00000
E00000
E00000
E00000
E00000
E00000
E00000
E00000
E00000
E00000
E00000
E00000
E00000
E1F800
E7FE00
FFFF00
FC07C0
F001E0
E000F0
E00070
E00070
E00070
E00070
E00070
E00070
E00070
E00070
E00070
E00070
E00070
E00070
E00070
E00070
E00070
E00070
E00070
E00070
E00070
E00070
E00070
E00070
E00070
E00070
E000F0
F001E0
F803C0
FE0F80
FFFF00
E7FE00
E1F800
E00000
E00000
E00000
E00000
E00000
E00000
E00000
E00000
E00000
E00000
E00000
E00000
E00000
E00000
E00000
E00000
E00000
ENDCHAR
STARTCHAR 00FF
ENCODING 255
SWIDTH 345 0
DWIDTH 29 0
BBX 20 65 5 -17
BITMAP
0E0700
0E0700
0E0700
0E0700
0E0700
0E0700
000000
000000
000000
000000
000000
E00070
E00070
E00070
E00070
E00070
E00070
E00070
E00070
E00070
E00070
E00070
E00070
E00070
E00070
E00070
E00070
E00070
E00070
E00070
E00070
E00070
E00070
E00070
E00070
E00070
E00070
E00070
E00070
E00070
E00070
E000F0
F001F0
7803F0
3E0FF0
1FFF70
0FFE70
03F070
000070
000070
000070
000070
000070
000070
000070
000070
000070
000070
0000F0
0001E0
0003E0
000FC0
003F00
003E00
003800
ENDCHAR
STARTCHAR 0101
ENCODING 257
SWIDTH 345 0
DWIDTH 29 0
BBX 0 0 0 0
BITMAP
ENDCHAR
STARTCHAR 0152
ENCODING 338
SWIDTH 547 0
DWIDTH 46 0
BBX 37 55 5 0
BITMAP
01F800FC00
0FFE07FF00
1FFF0FFF80
3E0FDF07C0
7803FC01E0
F001F800F0
E000F00070
E000700000
E000700000
E000700000
E000700000
E000700000
E000700000
E000700000
E000700000
E000700000
E000700000
E000700000
E000700000
E000700000
E000700000
E000700000
E000700000
E0007FFE00
E0007FFE00
E0007FFE00
E000700000
E000700000
E000700000
E000700000
E000700000
E000700000
E000700000
E000700000
E000700000
E000700000
E000700000
E000700000
E000700000
E000700000
E000700000
E000700000
E000700000
E000700000
E000700000
E000700000
E000700000
E000700000
E000F00000
F001F80078
7803DC01F0
3E0F9F03E0
1FFF07FFC0
0FFC03FF00
03F000FC00
ENDCHAR
STARTCHAR 0153
ENCODING 339
SWIDTH 547 0
DWIDTH 46 0
BBX 37 37 5 0
BITMAP
03F801FC00
0FFE07FF00
1FFF0FFF80
7E0FFF07E0
F803FC01F0
F001F800F8
E000F00078
E000700038
E000700038
E000700038
E000700038
E000700038
E000700038
E000700038
E000700038
E000700038
E000700078
E0007800F0
E0007C01E0
E0007F07C0
E0007FFF80
E00073FF00
E00070FC00
E000700000
E000700000
E000700000
E000700000
E000700000
E000700000
E000700000
E000F00000
F001F80070
7803FC01F0
3E0F9F07E0
1FFF0FFF80
0FFE07FF00
03F000FC00
ENDCHAR
STARTCHAR 0160
ENCODING 352
SWIDTH 345 0
DWIDTH 29 0
BBX 20 67 5 0
BITMAP
1C0700
1C0700
0E0E00
071C00
071C00
03B800
01F800
01F000
00E000
000000
000000
000000
01F000
0FFE00
1FFF00
3E0F80
7803C0
F001E0
E000E0
C00000
C00000
C00000
C00000
C00000
C00000
C00000
C00000
C00000
C00000
C00000
C00000
E00000
F00000
F80000
7E0000
1FF800
0FFE00
03FF00
000F80
0003C0
0001E0
0000F0
000070
000070
000070
000070
000070
000070
000070
000070
000070
000070
000070
000070
000070
000070
000070
000070
000070
000070
2000F0
F001E0
7803C0
3E0F80
1FFF00
0FFE00
03F800
ENDCHAR
STARTCHAR 0161
ENCODING 353
SWIDTH 345 0
DWIDTH 29 0
BBX 20 50 5 0
BITMAP
1C0700
1C0700
0E0E00
071C00
079C00
03B800
01F000
01F000
00E000
000000
000000
000000
000000
03F800
0FFE00
1FFF00
7E0FC0
F803E0
F000F0
E00000
C00000
C00000
C00000
C00000
C00000
C00000
E00000
F00000
780000
3E0000
1FF800
0FFE00
01FF00
000FC0
0003E0
0000E0
000070
000070
000070
000070
000070
000070
000070
200070
F000E0
7803C0
3E0F80
1FFF00
0FFE00
03F800
ENDCHAR
STARTCHAR 0178
ENCODING 376
SWIDTH 345 0
DWIDTH 29 0
BBX 20 64 5 0
BITMAP
0E0700
0E0700
0E0700
0E0700
0E0700
0E0700
000000
000000
000000
E00070
E00070
E00070
E00070
E00070
E00070
E00070
E00070
E00070
E00070
E00070
E00070
E00070
E00070
E00070
E00070
E00070
E00070
E00070
E00070
E000F0
F001E0
7C07C0
3FFF80
0FFF00
03FC00
007000
007000
007000
007000
007000
007000
007000
007000
007000
007000
007000
007000
007000
007000
007000
007000
007000
007000
007000
007000
007000
007000
007000
007000
007000
007000
007000
007000
007000
ENDCHAR
STARTCHAR 0192
ENCODING 402
SWIDTH 440 0
DWIDTH 37 0
BBX 28 66 5 -11
BITMAP
00000070
000001F0
000003F0
00000780
00000E00
00001C00
00003800
00003000
00003000
00003000
00006000
00006000
00006000
00006000
00006000
00004000
0000C000
0000C000
0000C000
003FFF00
003FFF00
007FFF00
00018000
00018000
00018000
00018000
00018000
00018000
00030000
00030000
00030000
00030000
00030000
00030000
00060000
00060000
00060000
00060000
00060000
00060000
000C0000
000C0000
000C0000
000C0000
000C0000
000C0000
00180000
00180000
00180000
00180000
00180000
00180000
00300000
00300000
00300000
00300000
00300000
00300000
00600000
00600000
00E00000
03C00000
0F800000
FE000000
FC000000
E0000000
ENDCHAR
STARTCHAR 02C6
ENCODING 710
SWIDTH 273 0
DWIDTH 23 0
BBX 14 12 5 42
BITMAP
0700
0780
0F80
0FC0
1DC0
1CE0
3CE0
38F0
7870
7078
F038
E03C
ENDCHAR
STARTCHAR 02DC
ENCODING 732
SWIDTH 333 0
DWIDTH 28 0
BBX 19 5 5 48
BITMAP
0F0000
3FC1C0
FFFFE0
F0FF80
203E00
ENDCHAR
STARTCHAR 03BC
ENCODING 956
SWIDTH 345 0
DWIDTH 29 0
BBX 20 48 5 -11
BITMAP
E00070
E00070
E00070
E00070
E00070
E00070
E00070
E00070
E00070
E00070
E00070
E00070
E00070
E00070
E00070
E00070
E00070
E00070
E00070
E00070
E00070
E00070
E00070
E00070
E00070
E00070
E00070
E00070
E00070
E00070
E000F0
F001E0
F803C0
FE0F80
FFFF00
EFFE00
E1F000
E07800
E03C00
E01E00
E00F80
E007F0
E003F0
E000F0
E00000
E00000
E00000
E00000
ENDCHAR
STARTCHAR 2010
ENCODING 8208
SWIDTH 416 0
DWIDTH 35 0
BBX 26 3 5 23
BITMAP
FFFFFFC0
FFFFFFC0
FFFFFFC0
ENDCHAR
STARTCHAR 2013
ENCODING 8211
SWIDTH 476 0
DWIDTH 40 0
BBX 30 3 5 23
BITMAP
FFFFFFFC
FFFFFFFC
FFFFFFFC
ENDCHAR
STARTCHAR 2014
ENCODING 8212
SWIDTH 559 0
DWIDTH 47 0
BBX 37 3 5 23
BITMAP
FFFFFFFFF8
FFFFFFFFF8
FFFFFFFFF8
ENDCHAR
STARTCHAR 2018
ENCODING 8216
SWIDTH 178 0
DWIDTH 15 0
BBX 6 12 4 42
BITMAP
F0
70
70
70
78
38
38
38
3C
1C
1C
1C
ENDCHAR
STARTCHAR 2019
ENCODING 8217
SWIDTH 178 0
DWIDTH 15 0
BBX 6 12 4 44
BITMAP
1C
1C
1C
3C
38
38
38
78
70
70
70
F0
ENDCHAR
STARTCHAR 201A
ENCODING 8218
SWIDTH 178 0
DWIDTH 15 0
BBX 6 12 4 -5
BITMAP
1C
1C
1C
3C
38
38
38
78
70
70
70
F0
ENDCHAR
STARTCHAR 201C
ENCODING 8220
SWIDTH 238 0
DWIDTH 20 0
BBX 11 12 5 43
BITMAP
E700
E780
6380
6380
7380
7380
31C0
31C0
39C0
39C0
38E0
18E0
ENDCHAR
STARTCHAR 201D
ENCODING 8221
SWIDTH 238 0
DWIDTH 20 0
BBX 11 12 5 43
BITMAP
18E0
38E0
39C0
39C0
31C0
71C0
73C0
7380
6380
6380
E780
E700
ENDCHAR
STARTCHAR 201E
ENCODING 8222
SWIDTH 273 0
DWIDTH 23 0
BBX 14 12 5 -6
BITMAP
381C
3838
3838
3838
7038
7070
7070
7070
E070
E0E0
E0E0
E0E0
ENDCHAR
STARTCHAR 2020
ENCODING 8224
SWIDTH 285 0
DWIDTH 24 0
BBX 15 55 5 -6
BITMAP
0380
0380
0380
0380
0380
0380
0380
0380
0380
FFFE
FFFE
FFFE
0380
0380
0380
0380
0380
0380
0380
0380
0380
0380
0380
0380
0380
0380
0380
0380
0380
0380
0380
0380
0380
0380
0380
0380
0380
0380
0380
0380
0380
0380
0380
0380
0380
0380
0380
0380
0380
0380
0380
0380
0380
0380
0380
ENDCHAR
STARTCHAR 2021
ENCODING 8225
SWIDTH 285 0
DWIDTH 24 0
BBX 15 55 5 -6
BITMAP
0380
0380
0380
0380
0380
0380
0380
0380
0380
FFFE
FFFE
FFFE
0380
0380
0380
0380
0380
0380
0380
0380
0380
0380
0380
0380
0380
0380
0380
0380
0380
0380
0380
0380
0380
0380
0380
0380
0380
0380
0380
0380
0380
0380
0380
FFFE
FFFE
FFFE
0380
0380
0380
0380
0380
0380
0380
0380
0380
ENDCHAR
STARTCHAR 2022
ENCODING 8226
SWIDTH 178 0
DWIDTH 15 0
BBX 6 10 5 21
BITMAP
FC
FC
FC
FC
FC
FC
FC
FC
FC
FC
ENDCHAR
STARTCHAR 2026
ENCODING 8230
SWIDTH 440 0
DWIDTH 37 0
BBX 29 6 5 0
BITMAP
E0070038
E0070038
E0070038
E0070038
E0070038
E0070038
ENDCHAR
STARTCHAR 2030
ENCODING 8240
SWIDTH 833 0
DWIDTH 70 0
BBX 61 55 5 -1
BITMAP
0F80000F00000000
1FE0000E00000000
3FF0000E00000000
78F0001E00000000
7078001C00000000
E03C001C00000000
E01E003C00000000
E00E003800000000
E00E003800000000
E00E003800000000
E00E007000000000
E00E007000000000
E00E007000000000
E00E00F000000000
E00E00E000000000
E00E00E000000000
E00E01E000000000
E00E01C000000000
E00E01C000000000
E00E03C000000000
E00E038000000000
E00E038000000000
E01E038000000000
E01C070000000000
F03C070000000000
7C78070000000000
3FF00F007C001F00
1FE00E00FE007F80
0FC00E01FF00FFC0
00001E03C780F3E0
00001C038381C0E0
00001C0701C38070
00003C0701E38078
0000380700E38038
0000380700E38038
0000380700E38038
0000700700E38038
0000700700E38038
0000700700E38038
0000E00700E38038
0000E00700E38038
0000E00700E38038
0001E00700E38038
0001C00700E38038
0001C00700E38038
0003C00700E38038
0003800700E38038
0003800700E38038
0003800701E38078
0007000701C38070
0007000783C1C0F0
00070003C781F1E0
000E0001FF00FFC0
000E0000FE007F80
000E00007C001F00
ENDCHAR
STARTCHAR 2039
ENCODING 8249
SWIDTH 226 0
DWIDTH 19 0
BBX 10 20 5 14
BITMAP
0040
00C0
01C0
0380
0700
1F00
3E00
7C00
F800
F800
F000
F800
F800
7C00
3E00
1F00
0F00
0380
0180
0080
ENDCHAR
STARTCHAR 203A
ENCODING 8250
SWIDTH 226 0
DWIDTH 19 0
BBX 10 19 5 15
BITMAP
8000
C000
E000
7800
7C00
3E00
1F00
0F80
07C0
07C0
07C0
0F80
1F00
3E00
3C00
7800
F000
E000
8000
ENDCHAR
STARTCHAR 2122
ENCODING 8482
SWIDTH 630 0
DWIDTH 53 0
BBX 44 16 5 33
BITMAP
0FC003E03E00
3FF00FF8FF80
7FF81FFDFFC0
F3BE3C1FC3F0
0380380F00F0
038038070070
038038070070
038038070070
038038070070
038038070070
038038070070
038038070070
038038070070
038038070070
038038070070
038038070070
ENDCHAR
STARTCHAR 2212
ENCODING 8722
SWIDTH 416 0
DWIDTH 35 0
BBX 26 3 5 23
BITMAP
FFFFFFC0
FFFFFFC0
FFFFFFC0
ENDCHAR
STARTCHAR 2219
ENCODING 8729
SWIDTH 142 0
DWIDTH 12 0
BBX 3 6 5 23
BITMAP
E0
E0
E0
E0
E0
E0
ENDCHAR
ENDFONT
